<svg width="38" height="38" viewBox="0 0 38 38" fill="none" xmlns="http://www.w3.org/2000/svg">
<path d="M29.0938 0H8.90625C3.98746 0 0 3.98746 0 8.90625V29.0938C0 34.0125 3.98746 38 8.90625 38H29.0938C34.0125 38 38 34.0125 38 29.0938V8.90625C38 3.98746 34.0125 0 29.0938 0Z" fill="#A6F6FF"/>
<path d="M10.0208 16H14.1815C15.0193 16.041 15.237 16.3259 15.4133 17.0542V20.759H13.9078V16.8434H10.404V20.759H8.89844V16.9639C9.05434 16.3136 9.30554 16.1098 10.0208 16Z" fill="black"/>
<path d="M18.7805 16.1807H27.6769C28.6941 16.2063 29.011 16.4479 29.1551 17.2349V20.9398H27.6769V16.9639H19.109V20.9398H17.6582V17.2349C17.7162 16.4691 18.0767 16.3455 18.7805 16.1807Z" fill="black"/>
<path d="M29.541 17.2952C29.5833 16.6347 29.8086 16.4154 30.417 16.1807H35.0705C35.5536 16.3092 35.7662 16.4568 36.0012 16.9036V18.5602C35.8123 19.1772 35.5887 19.3363 35.0705 19.4337H30.9918V20.1566H36.0012V21H30.6633C29.7981 20.9525 29.5122 20.7285 29.541 19.7952V17.2952Z" fill="black"/>
<rect x="30.9629" y="17.024" width="3.55856" height="1.56626" fill="#A6F6FF"/>
<rect x="15.7969" y="17.6265" width="1.47817" height="3.19277" fill="black"/>
<rect width="1.47817" height="0.843372" transform="matrix(1 0 0 -1 15.7969 17.024)" fill="black"/>
<path d="M2 16H7.81495L8.08416 16.1506L8.35337 16.4518L8.46106 16.6928L8.5149 16.9337V20.759L2.98545 20.7891C2.42718 20.6249 2.1974 20.4323 2 19.8253V18.3795L2.16424 18.0181L2.4106 17.7771L2.65696 17.5964H6.98198V16.8133H2V16Z" fill="black"/>
<rect x="3.47852" y="18.4097" width="3.61331" height="1.6265" fill="#A6F6FF"/>
</svg>
