<svg width="38" height="38" viewBox="0 0 38 38" fill="none" xmlns="http://www.w3.org/2000/svg">
<rect width="38" height="38" rx="8" fill="#A6F6FF"/>
<path d="M8.4768 5C6.4224 5 4.904 6.81857 4.9728 8.78922C5.0368 10.6838 4.952 13.1366 4.3408 15.138C3.728 17.1443 2.6928 18.416 1 18.5794V20.4206C2.6928 20.584 3.728 21.8557 4.3408 23.862C4.952 25.8617 5.0368 28.3162 4.9712 30.2092C4.904 32.1814 6.4224 34 8.4784 34H29.5248C31.5792 34 33.0992 32.1814 33.032 30.2092C32.9664 28.3162 33.0512 25.8617 33.6608 23.862C34.2752 21.8557 35.3088 20.584 37 20.4206V18.5794C35.3072 18.416 34.2752 17.1443 33.6608 15.138C33.0512 13.1383 32.9664 10.6838 33.032 8.78922C33.0992 6.81857 31.5792 5 29.5248 5H8.4768ZM25.4064 22.8508C25.4064 25.5657 23.4048 27.2127 20.0816 27.2127H14.424C14.3438 27.2129 14.2644 27.1972 14.1902 27.1663C14.1161 27.1354 14.0487 27.09 13.9919 27.0328C13.9351 26.9755 13.8901 26.9075 13.8594 26.8326C13.8286 26.7577 13.8128 26.6774 13.8128 26.5963V12.4037C13.8128 12.3226 13.8286 12.2423 13.8594 12.1674C13.8901 12.0925 13.9351 12.0245 13.9919 11.9672C14.0487 11.91 14.1161 11.8646 14.1902 11.8337C14.2644 11.8028 14.3438 11.7871 14.424 11.7873H20.048C22.8192 11.7873 24.6384 13.3049 24.6384 15.6364C24.6384 17.2705 23.4144 18.7363 21.856 18.992V19.0777C23.9776 19.3123 25.4064 20.7992 25.4064 22.8508ZM19.464 13.7417H16.2384V18.3496H18.9552C21.056 18.3496 22.2128 17.4954 22.2128 15.9664C22.2128 14.5345 21.2176 13.7434 19.464 13.7434V13.7417ZM16.2384 20.1779V25.2566H19.5824C21.7696 25.2566 22.9264 24.3684 22.9264 22.7003C22.9264 21.0338 21.7376 20.1779 19.4416 20.1779H16.2384Z" fill="black"/>
</svg>
