<svg width="21" height="19" viewBox="0 0 21 19" fill="none" xmlns="http://www.w3.org/2000/svg">
<path d="M20.2656 11.6562V16.6875C20.2656 17.1641 20.0599 17.6211 19.6936 17.9581C19.3273 18.2951 18.8305 18.4844 18.3125 18.4844H2.6875C2.1695 18.4844 1.67271 18.2951 1.30643 17.9581C0.94015 17.6211 0.734375 17.1641 0.734375 16.6875V11.6562C0.734375 11.3703 0.85784 11.0961 1.07761 10.8939C1.29738 10.6917 1.59545 10.5781 1.90625 10.5781C2.21705 10.5781 2.51512 10.6917 2.73489 10.8939C2.95466 11.0961 3.07812 11.3703 3.07812 11.6562V16.3281H17.9219V11.6562C17.9219 11.3703 18.0453 11.0961 18.2651 10.8939C18.4849 10.6917 18.7829 10.5781 19.0938 10.5781C19.4046 10.5781 19.7026 10.6917 19.9224 10.8939C20.1422 11.0961 20.2656 11.3703 20.2656 11.6562ZM9.6709 12.419C9.77977 12.5195 9.90914 12.5993 10.0516 12.6537C10.194 12.7081 10.3467 12.7361 10.501 12.7361C10.6552 12.7361 10.8079 12.7081 10.9504 12.6537C11.0928 12.5993 11.2222 12.5195 11.3311 12.419L15.2373 8.82527C15.4575 8.62274 15.5811 8.34803 15.5811 8.0616C15.5811 7.77517 15.4575 7.50047 15.2373 7.29793C15.0172 7.09539 14.7186 6.98161 14.4072 6.98161C14.0959 6.98161 13.7973 7.09539 13.5771 7.29793L11.6719 9.05078V1.59375C11.6719 1.30781 11.5484 1.03359 11.3286 0.831401C11.1089 0.629213 10.8108 0.515625 10.5 0.515625C10.1892 0.515625 9.89113 0.629213 9.67136 0.831401C9.45159 1.03359 9.32812 1.30781 9.32812 1.59375V9.05078L7.42285 7.29973C7.2027 7.09719 6.90411 6.9834 6.59277 6.9834C6.28143 6.9834 5.98285 7.09719 5.7627 7.29973C5.54254 7.50226 5.41887 7.77697 5.41887 8.0634C5.41887 8.34983 5.54254 8.62453 5.7627 8.82707L9.6709 12.419Z" fill="#98E4EC"/>
</svg>
