<svg width="38" height="38" viewBox="0 0 38 38" fill="none" xmlns="http://www.w3.org/2000/svg">
<path d="M29.0938 0H8.90625C3.98746 0 0 3.98746 0 8.90625V29.0938C0 34.0125 3.98746 38 8.90625 38H29.0938C34.0125 38 38 34.0125 38 29.0938V8.90625C38 3.98746 34.0125 0 29.0938 0Z" fill="#A6F6FF"/>
<path d="M34.3425 27.7098C33.2025 27.9998 32.4975 27.7223 31.865 26.7723C30.445 24.6448 28.8775 22.6148 27.365 20.5473C27.17 20.2798 26.9675 20.0173 26.715 19.6848C24.925 22.0998 23.1375 24.3998 21.46 26.7923C20.86 27.6473 20.23 28.0198 19.11 27.7173L25.84 18.6848L19.575 10.5273C20.6525 10.3173 21.3975 10.4248 22.0575 11.3898C23.515 13.5198 25.1225 15.5473 26.725 17.6923C28.3375 15.5548 29.925 13.5248 31.425 11.4148C32.0275 10.5598 32.675 10.2348 33.7575 10.5498C32.9375 11.6373 32.135 12.7073 31.3275 13.7698C30.2375 15.2023 29.1675 16.6523 28.0375 18.0548C27.635 18.5548 27.7 18.8798 28.06 19.3523C30.15 22.0998 32.215 24.8748 34.3425 27.7098ZM3.0075 18.5348C3.1875 17.6323 3.3075 16.7123 3.5575 15.8273C5.0575 10.4698 11.2075 8.24227 15.4325 11.5623C17.9075 13.5098 18.5225 16.2548 18.4 19.3498H4.45C4.24 24.9023 8.2375 28.2548 13.3325 26.5448C15.12 25.9448 16.1725 24.5448 16.7 22.7948C16.9675 21.9173 17.41 21.7798 18.235 22.0298C17.8125 24.2198 16.855 26.0498 14.855 27.1948C11.855 28.9098 7.5725 28.3548 5.32 25.9723C3.99 24.5723 3.425 22.8298 3.175 20.9473C3.1375 20.6473 3.06 20.3523 3 20.0548C3.005 19.5481 3.0075 19.0414 3.0075 18.5348ZM4.475 18.1623H17.0825C17 14.1473 14.5 11.2948 11.0825 11.2698C7.3325 11.2398 4.6375 14.0248 4.475 18.1623Z" fill="black"/>
</svg>
