<svg width="38" height="38" viewBox="0 0 38 38" fill="none" xmlns="http://www.w3.org/2000/svg">
<rect width="38" height="38" rx="8" fill="#A6F6FF"/>
<path d="M23.7276 13.9983C25.0983 13.9554 26.3992 13.3572 27.3542 12.3306C28.3093 11.304 28.8434 9.92972 28.8434 8.49917C28.8434 7.06862 28.3093 5.69433 27.3542 4.66771C26.3992 3.6411 25.0983 3.04291 23.7276 3H13.1827C11.8119 3.04291 10.5111 3.6411 9.55607 4.66771C8.60102 5.69433 8.06686 7.06862 8.06686 8.49917C8.06686 9.92972 8.60102 11.304 9.55607 12.3306C10.5111 13.3572 11.8119 13.9554 13.1827 13.9983C11.8 14.0233 10.482 14.6139 9.51257 15.6428C8.54319 16.6716 8 18.0565 8 19.4992C8 20.9418 8.54319 22.3267 9.51257 23.3556C10.482 24.3845 11.8 24.975 13.1827 25C11.8067 25.0352 10.4984 25.6301 9.53717 26.6577C8.57591 27.6853 8.03783 29.0642 8.03783 30.5C8.03783 31.9358 8.57591 33.3147 9.53717 34.3423C10.4984 35.3699 11.8067 35.9648 13.1827 36C14.581 35.9991 15.9219 35.4192 16.9105 34.3875C17.8991 33.3559 18.4547 31.9571 18.4551 30.4983V13.9983H23.7276Z" fill="#070707"/>
<path d="M23.7275 24.9984C26.6394 24.9984 29 22.536 29 19.4984C29 16.4608 26.6394 13.9984 23.7275 13.9984C20.8156 13.9984 18.4551 16.4608 18.4551 19.4984C18.4551 22.536 20.8156 24.9984 23.7275 24.9984Z" fill="#070707"/>
</svg>
