<svg width="38" height="38" viewBox="0 0 38 38" fill="none" xmlns="http://www.w3.org/2000/svg">
<path d="M29.0938 0H8.90625C3.98746 0 0 3.98746 0 8.90625V29.0938C0 34.0125 3.98746 38 8.90625 38H29.0938C34.0125 38 38 34.0125 38 29.0938V8.90625C38 3.98746 34.0125 0 29.0938 0Z" fill="#A6F6FF"/>
<path d="M34.3937 17.5737L20.4217 3.60372C20.2304 3.41232 20.0033 3.26049 19.7533 3.15691C19.5033 3.05332 19.2353 3 18.9647 3C18.6941 3 18.4262 3.05332 18.1762 3.15691C17.9262 3.26049 17.699 3.41232 17.5077 3.60372L14.6077 6.50372L18.2877 10.1837C18.7217 10.0355 19.1887 10.0124 19.6352 10.1168C20.0818 10.2213 20.4899 10.4492 20.8132 10.7745C21.1364 11.0998 21.3617 11.5095 21.4633 11.9567C21.5649 12.4039 21.5387 12.8707 21.3877 13.3037L24.9337 16.8517C25.4583 16.667 26.0302 16.6664 26.5552 16.8501C27.0802 17.0338 27.527 17.3908 27.822 17.8623C28.117 18.3338 28.2427 18.8917 28.1783 19.4442C28.1139 19.9966 27.8633 20.5107 27.4677 20.9017C27.0673 21.3046 26.5394 21.556 25.9742 21.6129C25.409 21.6698 24.8416 21.5287 24.3689 21.2137C23.8962 20.8987 23.5476 20.4294 23.3825 19.8859C23.2174 19.3424 23.2461 18.7584 23.4637 18.2337L20.1577 14.9257V23.6317C20.6602 23.8805 21.0623 24.2939 21.297 24.8032C21.5316 25.3124 21.5846 25.8867 21.4471 26.4303C21.3097 26.9739 20.9901 27.454 20.5416 27.7905C20.0931 28.127 19.5428 28.2997 18.9824 28.2797C18.4221 28.2597 17.8855 28.0482 17.4622 27.6805C17.0388 27.3129 16.7543 26.8112 16.6559 26.2592C16.5576 25.7072 16.6515 25.1381 16.9218 24.6469C17.1922 24.1557 17.6227 23.772 18.1417 23.5597V14.7737C17.8423 14.651 17.5701 14.4703 17.3409 14.2419C17.1116 14.0135 16.9299 13.742 16.806 13.4431C16.6822 13.1441 16.6188 12.8236 16.6194 12.5C16.6201 12.1765 16.6847 11.8562 16.8097 11.5577L13.1837 7.92972L3.60372 17.5097C3.41232 17.701 3.26049 17.9282 3.15691 18.1782C3.05332 18.4282 3 18.6961 3 18.9667C3 19.2373 3.05332 19.5053 3.15691 19.7553C3.26049 20.0053 3.41232 20.2324 3.60372 20.4237L17.5757 34.3957C17.767 34.5871 17.9942 34.7389 18.2442 34.8425C18.4942 34.9461 18.7621 34.9994 19.0327 34.9994C19.3033 34.9994 19.5713 34.9461 19.8213 34.8425C20.0713 34.7389 20.2984 34.5871 20.4897 34.3957L34.3957 20.4897C34.7818 20.1031 34.9986 19.5791 34.9986 19.0327C34.9986 18.4864 34.7818 17.9623 34.3957 17.5757" fill="black"/>
</svg>
