<svg width="38" height="38" viewBox="0 0 38 38" fill="none" xmlns="http://www.w3.org/2000/svg">
<rect width="38" height="38" rx="8" fill="#A6F6FF"/>
<path d="M18.5 2C16.3332 2 14.1876 2.43738 12.1857 3.28717C10.1839 4.13696 8.3649 5.38251 6.83274 6.95272C3.73839 10.1239 2 14.4249 2 18.9096C2 26.3837 6.7355 32.7248 13.286 34.9738C14.111 35.1091 14.375 34.5849 14.375 34.1283V31.2706C9.8045 32.2852 8.831 29.0047 8.831 29.0047C8.072 27.0432 6.9995 26.519 6.9995 26.519C5.498 25.4706 7.115 25.5044 7.115 25.5044C8.765 25.6228 9.6395 27.2461 9.6395 27.2461C11.075 29.8164 13.5005 29.0554 14.441 28.6496C14.5895 27.5505 15.0185 26.8064 15.4805 26.3837C11.8175 25.961 7.973 24.5067 7.973 18.0642C7.973 16.1872 8.6 14.6822 9.6725 13.4816C9.5075 13.0589 8.93 11.3003 9.8375 9.0175C9.8375 9.0175 11.2235 8.56094 14.375 10.7423C15.6785 10.3703 17.0975 10.1843 18.5 10.1843C19.9025 10.1843 21.3215 10.3703 22.625 10.7423C25.7765 8.56094 27.1625 9.0175 27.1625 9.0175C28.07 11.3003 27.4925 13.0589 27.3275 13.4816C28.4 14.6822 29.027 16.1872 29.027 18.0642C29.027 24.5236 25.166 25.9441 21.4865 26.3668C22.0805 26.891 22.625 27.9225 22.625 29.4951V34.1283C22.625 34.5849 22.889 35.126 23.7305 34.9738C30.281 32.7079 35 26.3837 35 18.9096C35 16.689 34.5732 14.4902 33.744 12.4386C32.9148 10.387 31.6994 8.52293 30.1673 6.95272C28.6351 5.38251 26.8161 4.13696 24.8143 3.28717C22.8124 2.43738 20.6668 2 18.5 2Z" fill="#070707"/>
</svg>
