<svg width="22" height="22" viewBox="0 0 22 22" fill="none" xmlns="http://www.w3.org/2000/svg">
<path d="M4.68 21.76C4.06667 21.76 3.48 21.6 2.92 21.28C2.33333 20.9867 1.85333 20.5867 1.48 20.08C1.10667 19.5733 0.92 19 0.92 18.36C0.92 18.0667 0.96 17.7733 1.04 17.48C1.09333 17.16 1.21333 16.8933 1.4 16.68L1.52 16.8C1.49333 16.9867 1.46667 17.16 1.44 17.32C1.38667 17.48 1.36 17.64 1.36 17.8C1.36 18.6267 1.66667 19.2267 2.28 19.6C2.89333 19.9733 3.57333 20.16 4.32 20.16C5.36 20.16 6.34667 19.8667 7.28 19.28C8.24 18.6933 9.10667 17.9733 9.88 17.12C10.68 16.2667 11.3333 15.44 11.84 14.64V14.52L12.6 13.8C12.6 13.6667 12.6933 13.3067 12.88 12.72C13.0933 12.1333 13.3467 11.48 13.64 10.76C13.9333 10.0133 14.2 9.33333 14.44 8.72C14.7067 8.10667 14.88 7.70667 14.96 7.52V7.44C15.2533 6.72 15.5333 6 15.8 5.28C16.0667 4.56 16.2267 3.81333 16.28 3.04C16.1733 2.98667 16.1067 2.86667 16.08 2.68C16.08 2.46667 16.0933 2.30667 16.12 2.2C15.9333 2.22667 15.6 2.33333 15.12 2.52C14.64 2.70667 14.12 2.93333 13.56 3.2C13 3.46667 12.4933 3.73333 12.04 4C11.5867 4.24 11.2667 4.42667 11.08 4.56L11.36 4.76C11.1733 4.92 11 5.09333 10.84 5.28C10.68 5.44 10.52 5.6 10.36 5.76C10.04 5.86667 9.84 6.08 9.76 6.4C9.70667 6.72 9.69333 7.02667 9.72 7.32L9.56 7.4C9.61333 7.8 9.74667 8.08 9.96 8.24C10.1733 8.37333 10.4133 8.44 10.68 8.44C10.9467 8.44 11.2133 8.4 11.48 8.32L11.52 8.4L11.24 8.8L11 8.88C10.3067 8.88 9.65333 8.69333 9.04 8.32C8.42667 7.94667 8.12 7.36 8.12 6.56C8.12 5.97333 8.30667 5.42667 8.68 4.92C9.08 4.41333 9.56 4 10.12 3.68C10.7067 3.33333 11.2667 3.12 11.8 3.04V3L11.6 2.76C12.4533 2.44 13.2933 2.10667 14.12 1.76C14.9733 1.38667 15.8533 1.14667 16.76 1.04V0.999999C16.76 0.866666 16.9867 0.759999 17.44 0.679999C17.92 0.573333 18.4133 0.493333 18.92 0.439999C19.4533 0.386666 19.8 0.359999 19.96 0.359999C20.0933 0.359999 20.3067 0.386666 20.6 0.439999C20.92 0.466666 21.0933 0.573332 21.12 0.759999C20.8533 1.13333 20.6133 1.70667 20.4 2.48C20.2133 3.22667 20.0267 3.97333 19.84 4.72C19.6533 5.44 19.4133 5.97333 19.12 6.32C18.88 6.34667 18.7067 6.53333 18.6 6.88C18.4933 7.2 18.3733 7.44 18.24 7.6C18.0267 7.62667 17.84 7.74667 17.68 7.96C17.52 8.17333 17.3333 8.22667 17.12 8.12C16.9333 8.28 16.7467 8.45333 16.56 8.64C16.4 8.8 16.2533 8.97333 16.12 9.16V9.48L15.64 9.8L15.68 10.2L15.56 10.52L15.92 10.56V10.64H15.72C15.6933 10.7733 15.64 10.9067 15.56 11.04C15.5067 11.1467 15.4533 11.2667 15.4 11.4L15.68 11.64L15.28 12L15.44 11.96C15.4133 12.1467 15.3333 12.3333 15.2 12.52C15.0933 12.68 14.9733 12.8267 14.84 12.96L14.68 12.88C14.4933 13.04 14.3467 13.1733 14.24 13.28C14.1333 13.36 14.08 13.5067 14.08 13.72C14.08 13.8533 14.0933 13.9733 14.12 14.08L13.88 13.92C13.72 14.0267 13.56 14.16 13.4 14.32C13.2667 14.4533 13.2267 14.6267 13.28 14.84C12.6933 15.2133 12.1867 15.6667 11.76 16.2C11.36 16.7067 10.96 17.2267 10.56 17.76L10.4 17.6L10.2 17.96L10.24 18.16L10.32 18.28L9.92 18.64V18.68C9.6 19.16 9.13333 19.6267 8.52 20.08C7.93333 20.56 7.29333 20.96 6.6 21.28C5.93333 21.6 5.29333 21.76 4.68 21.76ZM12.32 2.96C12.5333 2.85333 12.7333 2.76 12.92 2.68C13.1333 2.57333 13.3333 2.44 13.52 2.28V2.24C13.4133 2.29333 13.3067 2.34667 13.2 2.4C13.12 2.45333 13.0133 2.50667 12.88 2.56L12.8 2.44L12.12 2.76L12.32 2.96ZM9.4 7.76L9.2 7.24H9.12C9.14667 7.34667 9.17333 7.45333 9.2 7.56C9.22667 7.64 9.29333 7.70667 9.4 7.76Z" fill="#A6F6FF"/>
</svg>
