<svg width="24" height="25" viewBox="0 0 24 25" fill="none" xmlns="http://www.w3.org/2000/svg">
<path fill-rule="evenodd" clip-rule="evenodd" d="M5.14328 0.411133C3.77954 0.411133 2.47163 0.952741 1.50713 1.91687C0.542635 2.88099 0.00052371 4.1887 0 5.55244V19.2679C0 20.6319 0.54188 21.9401 1.50643 22.9047C2.47098 23.8693 3.7792 24.4111 5.14328 24.4111H18.8587C20.2224 24.4106 21.5301 23.8685 22.4943 22.904C23.4584 21.9395 24 20.6316 24 19.2679V5.55244C23.9995 4.18904 23.4576 2.88163 22.4936 1.91756C21.5295 0.953496 20.2221 0.411656 18.8587 0.411133H5.14328ZM20.3381 5.56034C20.3381 5.95322 20.182 6.33001 19.9042 6.60782C19.6264 6.88563 19.2496 7.0417 18.8567 7.0417C18.4638 7.0417 18.087 6.88563 17.8092 6.60782C17.5314 6.33001 17.3754 5.95322 17.3754 5.56034C17.3754 5.16746 17.5314 4.79067 17.8092 4.51286C18.087 4.23505 18.4638 4.07898 18.8567 4.07898C19.2496 4.07898 19.6264 4.23505 19.9042 4.51286C20.182 4.79067 20.3381 5.16746 20.3381 5.56034ZM12.003 8.30184C10.9134 8.30184 9.86841 8.73468 9.09795 9.50513C8.3275 10.2756 7.89466 11.3206 7.89466 12.4101C7.89466 13.4997 8.3275 14.5447 9.09795 15.3152C9.86841 16.0856 10.9134 16.5184 12.003 16.5184C13.0926 16.5184 14.1375 16.0856 14.908 15.3152C15.6784 14.5447 16.1113 13.4997 16.1113 12.4101C16.1113 11.3206 15.6784 10.2756 14.908 9.50513C14.1375 8.73468 13.0926 8.30184 12.003 8.30184ZM5.91754 12.4101C5.91754 10.7967 6.55847 9.24936 7.69934 8.1085C8.84021 6.96763 10.3876 6.3267 12.001 6.3267C13.6144 6.3267 15.1618 6.96763 16.3026 8.1085C17.4435 9.24936 18.0844 10.7967 18.0844 12.4101C18.0844 14.0236 17.4435 15.5709 16.3026 16.7118C15.1618 17.8527 13.6144 18.4936 12.001 18.4936C10.3876 18.4936 8.84021 17.8527 7.69934 16.7118C6.55847 15.5709 5.91754 14.0236 5.91754 12.4101Z" fill="#A6F6FF"/>
</svg>
