<svg width="132" height="32" viewBox="0 0 132 32" fill="none" xmlns="http://www.w3.org/2000/svg">
<g filter="url(#filter0_d_940_15)">
<path d="M4.08594 0.5H6.89844V23H4.08594V0.5ZM23.5531 10.3438C25.0961 10.3438 26.4193 10.4072 27.5229 10.5342C28.6264 10.6611 29.5541 10.8516 30.3061 11.1055C31.0678 11.3496 31.6732 11.6572 32.1225 12.0283C32.5717 12.3994 32.9184 12.8242 33.1625 13.3027C33.4066 13.7715 33.5629 14.2988 33.6312 14.8848C33.7094 15.4707 33.7484 16.1055 33.7484 16.7891C33.7484 17.4727 33.685 18.1172 33.558 18.7227C33.4408 19.3184 33.226 19.8652 32.9135 20.3633C32.601 20.8613 32.1762 21.3057 31.6391 21.6963C31.102 22.0869 30.4184 22.4189 29.5883 22.6924C28.7582 22.9658 27.7572 23.1709 26.5854 23.3076C25.4232 23.4541 24.0609 23.5273 22.4984 23.5273H18.7484C17.3422 23.5273 16.1117 23.4736 15.057 23.3662C14.0023 23.2588 13.0941 23.0977 12.3324 22.8828C11.5707 22.6582 10.9408 22.3799 10.4428 22.0479C9.94473 21.7061 9.54433 21.3105 9.2416 20.8613C8.94863 20.4023 8.74355 19.8848 8.62637 19.3086C8.50918 18.7227 8.45058 18.0781 8.45058 17.375H11.2631C11.2631 18.2539 11.39 18.9424 11.6439 19.4404C11.8979 19.9385 12.3178 20.3145 12.9037 20.5684C13.4896 20.8125 14.2562 20.9688 15.2035 21.0371C16.1605 21.0957 17.3422 21.125 18.7484 21.125H22.4984C24.1391 21.125 25.5014 21.0469 26.5854 20.8906C27.6693 20.7344 28.5336 20.4854 29.1781 20.1436C29.8227 19.8018 30.2768 19.3574 30.5404 18.8105C30.8041 18.2539 30.9359 17.5801 30.9359 16.7891C30.9359 15.998 30.8432 15.3389 30.6576 14.8115C30.4818 14.2842 30.1254 13.8643 29.5883 13.5518C29.0609 13.2393 28.3139 13.0195 27.3471 12.8926C26.3803 12.7559 25.1156 12.6875 23.5531 12.6875H19.6859C17.9672 12.6875 16.4926 12.624 15.2621 12.4971C14.0414 12.3701 13.016 12.1895 12.1859 11.9551C11.3559 11.7109 10.6918 11.4131 10.1937 11.0615C9.6957 10.7002 9.31484 10.29 9.05117 9.83105C8.79726 9.37207 8.63125 8.86426 8.55312 8.30762C8.475 7.74121 8.43594 7.13086 8.43594 6.47656C8.43594 5.79297 8.49453 5.1582 8.61172 4.57227C8.73867 3.98633 8.96816 3.45898 9.30019 2.99023C9.63223 2.51172 10.0863 2.08691 10.6625 1.71582C11.2387 1.34473 11.976 1.03711 12.8744 0.792969C13.7826 0.539063 14.8715 0.348633 16.141 0.22168C17.4105 0.0947266 18.9047 0.03125 20.6234 0.03125H23.4359C24.8422 0.03125 26.0727 0.0849609 27.1273 0.192383C28.182 0.290039 29.0902 0.451172 29.852 0.675781C30.6137 0.890625 31.2436 1.16406 31.7416 1.49609C32.2494 1.81836 32.6498 2.20898 32.9428 2.66797C33.2455 3.11719 33.4555 3.62988 33.5727 4.20605C33.6898 4.78223 33.7484 5.42188 33.7484 6.125H30.9359C30.9359 5.24609 30.809 4.55762 30.5551 4.05957C30.3012 3.56152 29.8812 3.19043 29.2953 2.94629C28.7094 2.69238 27.9379 2.53613 26.9809 2.47754C26.0238 2.40918 24.8422 2.375 23.4359 2.375H20.6234C18.7484 2.375 17.2055 2.44336 15.9945 2.58008C14.7836 2.70703 13.8266 2.92676 13.1234 3.23926C12.4203 3.55176 11.932 3.97168 11.6586 4.49902C11.3852 5.02637 11.2484 5.68555 11.2484 6.47656C11.2484 6.96484 11.2826 7.39941 11.351 7.78027C11.4193 8.16113 11.5561 8.49805 11.7611 8.79102C11.976 9.07422 12.2738 9.31348 12.6547 9.50879C13.0355 9.7041 13.5385 9.86523 14.1635 9.99219C14.7885 10.1191 15.5502 10.2119 16.4486 10.2705C17.3568 10.3193 18.4359 10.3438 19.6859 10.3438H23.5531ZM38.0984 2.375V23H35.2859V0.5H39.9734L53.0838 20.1875L66.1941 0.5H70.6766V23H67.8641V2.68262L54.5047 23H51.6629L38.0984 2.375ZM95.1828 17.8438H77.3703L74.5578 23H71.2766L84.4016 0.5H88.1516L101.277 23H97.9953L95.1828 17.8438ZM93.7766 15.5L86.2766 2.375L78.7766 15.5H93.7766ZM101.877 0.5H104.689V23H101.877V0.5ZM107.164 23V0.5H109.977V20.6562H127.789V23H107.164Z" fill="white"/>
</g>
<defs>
<filter id="filter0_d_940_15" x="0.0859375" y="0.03125" width="131.703" height="31.4961" filterUnits="userSpaceOnUse" color-interpolation-filters="sRGB">
<feFlood flood-opacity="0" result="BackgroundImageFix"/>
<feColorMatrix in="SourceAlpha" type="matrix" values="0 0 0 0 0 0 0 0 0 0 0 0 0 0 0 0 0 0 127 0" result="hardAlpha"/>
<feOffset dy="4"/>
<feGaussianBlur stdDeviation="2"/>
<feComposite in2="hardAlpha" operator="out"/>
<feColorMatrix type="matrix" values="0 0 0 0 0 0 0 0 0 0 0 0 0 0 0 0 0 0 0.25 0"/>
<feBlend mode="normal" in2="BackgroundImageFix" result="effect1_dropShadow_940_15"/>
<feBlend mode="normal" in="SourceGraphic" in2="effect1_dropShadow_940_15" result="shape"/>
</filter>
</defs>
</svg>
