<svg width="39" height="38" viewBox="0 0 39 38" fill="none" xmlns="http://www.w3.org/2000/svg">
<rect x="0.949219" width="38" height="38" rx="8" fill="#A6F6FF"/>
<path d="M4.94922 4H34.9492V34H4.94922V4ZM12.8326 29.0667C13.4992 30.4833 14.8159 31.65 17.0659 31.65C19.5659 31.65 21.2826 30.3167 21.2826 27.4V17.7667H18.4492V27.3333C18.4492 28.7667 17.8659 29.1333 16.9492 29.1333C15.9826 29.1333 15.5826 28.4667 15.1326 27.6833L12.8326 29.0667ZM22.7992 28.7667C23.6326 30.4 25.3159 31.65 27.9492 31.65C30.6159 31.65 32.6159 30.2667 32.6159 27.7167C32.6159 25.3667 31.2659 24.3167 28.8659 23.2833L28.1659 22.9833C26.9492 22.4667 26.4326 22.1167 26.4326 21.2833C26.4326 20.6 26.9492 20.0667 27.7826 20.0667C28.5826 20.0667 29.1159 20.4167 29.5992 21.2833L31.7826 19.8333C30.8659 18.2333 29.5659 17.6167 27.7826 17.6167C25.2659 17.6167 23.6492 19.2167 23.6492 21.3333C23.6492 23.6333 24.9992 24.7167 27.0326 25.5833L27.7326 25.8833C29.0326 26.45 29.7992 26.8 29.7992 27.7667C29.7992 28.5667 29.0492 29.15 27.8826 29.15C26.4992 29.15 25.6992 28.4333 25.0992 27.4333L22.7992 28.7667Z" fill="black"/>
</svg>
