<svg width="39" height="38" viewBox="0 0 39 38" fill="none" xmlns="http://www.w3.org/2000/svg">
<path d="M29.5938 0H9.40625C4.48746 0 0.5 3.98746 0.5 8.90625V29.0938C0.5 34.0125 4.48746 38 9.40625 38H29.5938C34.5125 38 38.5 34.0125 38.5 29.0938V8.90625C38.5 3.98746 34.5125 0 29.5938 0Z" fill="#A6F6FF"/>
<mask id="mask0_1437_4" style="mask-type:luminance" maskUnits="userSpaceOnUse" x="3" y="3" width="33" height="32">
<path d="M3.5 3H35.5V35H3.5V3Z" fill="white"/>
</mask>
<g mask="url(#mask0_1437_4)">
<path d="M21.2351 10.468C20.3977 8.43067 20.5151 6.13867 21.7244 4.29467L22.6284 3C20.9564 6.13333 22.5484 9.98133 25.1084 11.9987C25.7934 12.5348 26.5571 12.9621 27.3724 13.2653C27.5911 13.3453 27.8391 13.4307 28.0657 13.488C30.9271 14.208 33.2591 13.7107 34.6471 11.636C34.6044 11.7 34.5497 11.8013 34.4804 11.9293C33.8617 13.076 32.0511 16.432 26.8004 15.3787C26.7004 15.3587 26.6044 15.3253 26.5084 15.2947L26.4231 15.2653L26.3617 15.2453C26.3334 15.2355 26.305 15.2262 26.2764 15.2173C26.1986 15.1906 26.1213 15.1626 26.0444 15.1333C23.9311 14.328 22.1191 12.632 21.2351 10.468Z" fill="black"/>
<path d="M14.3258 6.95468C12.2764 10.0147 12.3884 14.112 13.9871 17.3493C14.2827 17.9517 14.6223 18.5315 15.0031 19.084C15.2818 19.5013 15.5884 19.964 15.9471 20.2867C16.0951 20.456 16.2498 20.62 16.4071 20.7813L16.4978 20.8747L16.5284 20.9053C16.6876 21.0663 16.8508 21.2232 17.0178 21.376L17.0191 21.3773L17.0218 21.38C17.2233 21.5624 17.4301 21.7389 17.6418 21.9093L17.6951 21.952C17.8818 22.1013 18.0724 22.248 18.2684 22.388L18.2764 22.3933L18.2858 22.4C18.3484 22.4453 18.4124 22.4893 18.4764 22.532L18.5471 22.58C18.5889 22.6077 18.6303 22.6362 18.6711 22.6653C18.8111 22.7587 18.9524 22.848 19.0964 22.936L19.1364 22.9587L19.1564 22.972C19.3108 23.0641 19.4669 23.1534 19.6244 23.24L19.6658 23.2613L19.7191 23.2907C19.7884 23.328 19.8578 23.3667 19.9298 23.4027L19.9698 23.4227C20.176 23.5277 20.385 23.6273 20.5964 23.7213L20.6391 23.7387C20.8376 23.8261 21.0381 23.9088 21.2404 23.9867L21.2804 24.0013C21.4178 24.0547 21.5551 24.1027 21.6938 24.1507L21.7631 24.1747L21.8804 24.2133C21.9324 24.2293 21.9844 24.248 22.0351 24.2653C22.1804 24.316 22.3258 24.3653 22.4778 24.392C33.0564 26.2107 35.4991 17.7573 35.4991 17.7573C33.2978 21.048 29.0338 22.6187 24.4844 21.392C24.283 21.3369 24.0829 21.2769 23.8844 21.212C23.8307 21.1954 23.7774 21.1777 23.7244 21.1587L23.7044 21.152C23.5639 21.1049 23.4244 21.0551 23.2858 21.0027L23.2818 21C23.0517 20.9129 22.824 20.8196 22.5991 20.72L22.5244 20.6867C22.2623 20.5682 22.0043 20.4405 21.7511 20.304L21.6951 20.2747L21.5351 20.1893C21.389 20.1077 21.2445 20.0233 21.1018 19.936C20.8197 19.7638 20.544 19.5814 20.2751 19.3893C20.0809 19.2492 19.8902 19.1042 19.7031 18.9547L19.6564 18.916C19.6292 18.894 19.6021 18.8717 19.5751 18.8493C17.5831 17.2173 16.0044 14.9867 15.2551 12.4587C14.4684 9.83468 14.6378 6.89068 16.0004 4.50134L14.3258 6.95468Z" fill="black"/>
<path d="M5.53152 10.516C2.69952 14.7427 3.05152 20.2427 5.21552 24.7333C5.25552 24.82 5.29952 24.9053 5.34219 24.9893L5.37419 25.0533L5.41419 25.132C5.44773 25.2019 5.4833 25.2708 5.52086 25.3387L5.53819 25.372L5.63152 25.5453L5.65152 25.5813C5.71819 25.704 5.78752 25.8267 5.85819 25.9493L5.88086 25.9893C5.98771 26.1757 6.0993 26.3593 6.21552 26.54L6.23952 26.58L6.31819 26.704C6.43019 26.8773 6.54486 27.052 6.66486 27.224V27.2253C6.6677 27.2295 6.67081 27.2336 6.67419 27.2373L6.70619 27.2813L6.73286 27.3187C6.83686 27.4653 6.94219 27.612 7.05019 27.756L7.17019 27.9133C7.43154 28.252 7.70186 28.5837 7.98086 28.908L7.98886 28.9173L7.99552 28.924L8.00486 28.9347C8.28773 29.2533 8.58031 29.5633 8.88219 29.864L8.92219 29.904L9.01686 29.9973C9.16796 30.145 9.32177 30.2899 9.47819 30.432L9.52219 30.472L9.55686 30.5013C9.72373 30.6503 9.89263 30.797 10.0635 30.9413L10.1382 31.004C10.2515 31.0973 10.3662 31.1907 10.4822 31.2813L10.6649 31.4267C10.7929 31.524 10.9209 31.62 11.0502 31.7133L11.0715 31.7293L11.1915 31.8173L11.2289 31.844C11.3462 31.9293 11.4649 32.0093 11.5849 32.0893L11.6035 32.1027C11.6573 32.1389 11.7107 32.1758 11.7635 32.2133C11.9861 32.3594 12.2115 32.5012 12.4395 32.6387L12.5115 32.6813C12.7134 32.8006 12.9174 32.9162 13.1235 33.028L13.1942 33.0667L13.2729 33.1093C13.3515 33.152 13.4289 33.1947 13.5089 33.236L13.5422 33.252L13.5822 33.272L13.6275 33.2947C13.6542 33.308 13.6822 33.3213 13.7102 33.3373C13.8755 33.4187 14.0409 33.4987 14.2089 33.5773L14.2715 33.6053L14.3142 33.6253C14.7308 33.8151 15.1547 33.9885 15.5849 34.1453L15.5982 34.1493L15.6542 34.1707C15.9582 34.28 16.2649 34.3814 16.5742 34.4747C16.7289 34.5267 16.8849 34.5773 17.0449 34.608C30.7475 37.2027 34.7275 26.0613 34.7275 26.0613C31.3849 30.5813 25.4515 31.7747 19.8289 30.4467C19.6173 30.3953 19.4082 30.3344 19.2022 30.264L19.0449 30.2147C18.8422 30.1507 18.6409 30.0813 18.4409 30.0107L18.3582 29.98C18.1782 29.9133 18.0022 29.8467 17.8249 29.7747L17.6755 29.7133C17.4825 29.6342 17.2909 29.5515 17.1009 29.4653L17.0395 29.4387C16.8589 29.3548 16.6793 29.2685 16.5009 29.18L16.4462 29.1507C16.4177 29.1371 16.3892 29.1233 16.3609 29.1093L16.0755 28.9587L15.9849 28.9107C15.9552 28.8945 15.9254 28.8785 15.8955 28.8627L15.7355 28.7747C15.5835 28.6907 15.4342 28.6013 15.2849 28.512L15.2275 28.4787L15.1342 28.4253C14.9021 28.2821 14.6727 28.1346 14.4462 27.9827L14.3889 27.9427C13.8198 27.5633 13.2744 27.1496 12.7555 26.704C12.597 26.57 12.4405 26.4335 12.2862 26.2947L12.2649 26.2747C12.0622 26.0882 11.863 25.898 11.6675 25.704C11.5546 25.5925 11.4435 25.4791 11.3342 25.364L11.2889 25.3187C11.1162 25.1382 10.9472 24.9542 10.7822 24.7667L10.7742 24.7587L10.7715 24.7547C10.6302 24.5947 10.4915 24.4293 10.3555 24.264L10.2462 24.1293C10.1066 23.9562 9.97015 23.7807 9.83686 23.6027C9.71952 23.4427 9.60352 23.2853 9.49019 23.124C6.37019 18.7053 5.24886 12.6093 7.74352 7.604L5.53152 10.516Z" fill="black"/>
</g>
</svg>
