<svg width="26" height="25" viewBox="0 0 26 25" fill="none" xmlns="http://www.w3.org/2000/svg">
<path d="M2.94667 0.411133C2.16516 0.411133 1.41567 0.69026 0.863059 1.18711C0.310452 1.68396 0 2.35783 0 3.06048C0 3.76313 0.310452 4.43701 0.863059 4.93386C1.41567 5.43071 2.16516 5.70983 2.94667 5.70983C3.72817 5.70983 4.47767 5.43071 5.03027 4.93386C5.58288 4.43701 5.89333 3.76313 5.89333 3.06048C5.89333 2.35783 5.58288 1.68396 5.03027 1.18711C4.47767 0.69026 3.72817 0.411133 2.94667 0.411133ZM0.173333 7.89165C0.127362 7.89165 0.0832743 7.90807 0.050768 7.9373C0.0182617 7.96652 0 8.00616 0 8.0475V24.2553C0 24.3413 0.0776533 24.4111 0.173333 24.4111H5.72C5.76597 24.4111 5.81006 24.3947 5.84257 24.3655C5.87507 24.3363 5.89333 24.2966 5.89333 24.2553V8.0475C5.89333 8.00616 5.87507 7.96652 5.84257 7.9373C5.81006 7.90807 5.76597 7.89165 5.72 7.89165H0.173333ZM9.18667 7.89165C9.1407 7.89165 9.09661 7.90807 9.0641 7.9373C9.0316 7.96652 9.01333 8.00616 9.01333 8.0475V24.2553C9.01333 24.3413 9.09099 24.4111 9.18667 24.4111H14.7333C14.7793 24.4111 14.8234 24.3947 14.8559 24.3655C14.8884 24.3363 14.9067 24.2966 14.9067 24.2553V15.528C14.9067 14.908 15.1806 14.3134 15.6682 13.875C16.1558 13.4366 16.8171 13.1904 17.5067 13.1904C18.1962 13.1904 18.8575 13.4366 19.3451 13.875C19.8327 14.3134 20.1067 14.908 20.1067 15.528V24.2553C20.1067 24.3413 20.1843 24.4111 20.28 24.4111H25.8267C25.8726 24.4111 25.9167 24.3947 25.9492 24.3655C25.9817 24.3363 26 24.2966 26 24.2553V13.5083C26 10.4824 23.0741 8.11607 19.7253 8.38911C18.6892 8.47391 17.6743 8.70446 16.7177 9.07233L14.9067 9.77051V8.0475C14.9067 8.00616 14.8884 7.96652 14.8559 7.9373C14.8234 7.90807 14.7793 7.89165 14.7333 7.89165H9.18667Z" fill="#A6F6FF"/>
</svg>
