<svg width="38" height="38" viewBox="0 0 38 38" fill="none" xmlns="http://www.w3.org/2000/svg">
<path d="M29.0938 0H8.90625C3.98746 0 0 3.98746 0 8.90625V29.0938C0 34.0125 3.98746 38 8.90625 38H29.0938C34.0125 38 38 34.0125 38 29.0938V8.90625C38 3.98746 34.0125 0 29.0938 0Z" fill="#A6F6FF"/>
<path d="M13 26.0674V24.0328L22 18.3555V10.6764L14.5 15.4184L7 10.6764V20.144L5.5 21.0957L4 20.144V7.01732L5.605 6L14.5 11.6281L20.395 7.90337L23.395 6L25 7.01732V20.2425L17.38 25.0665L23.455 28.8897L31 24.1312V16.8623L32.5 15.9107L34 16.8623V26.0182L23.455 32.68L13 26.0674ZM34 14.8113L32.5 15.763L31 14.8113V12.8915L32.5 11.9398L34 12.8915V14.8113Z" fill="black"/>
</svg>
