<svg width="38" height="38" viewBox="0 0 38 38" fill="none" xmlns="http://www.w3.org/2000/svg">
<rect width="38" height="38" rx="8" fill="#A6F6FF"/>
<path d="M21.59 5.66483C20.3272 4.01401 19.2297 2.36318 19.0193 2H18.9742C18.7637 2.34667 17.6662 4.01401 16.4034 5.66483C5.57912 20.8359 18.1172 31.071 18.1172 31.071L18.2225 31.1536C18.3127 32.7219 18.5532 35 18.5532 35H19.4853C19.4853 35 19.7108 32.7384 19.801 31.1536L19.9063 31.0545C19.9063 31.0545 32.4143 20.8359 21.59 5.66483ZM18.9742 30.8399C18.7107 30.6022 18.469 30.3368 18.2526 30.0475L18.9742 13.5393L19.6507 30.0475C19.4479 30.334 19.2214 30.5992 18.9742 30.8399Z" fill="#070707"/>
</svg>
