<svg width="38" height="38" viewBox="0 0 38 38" fill="none" xmlns="http://www.w3.org/2000/svg">
<path d="M29.0938 0H8.90625C3.98746 0 0 3.98746 0 8.90625V29.0938C0 34.0125 3.98746 38 8.90625 38H29.0938C34.0125 38 38 34.0125 38 29.0938V8.90625C38 3.98746 34.0125 0 29.0938 0Z" fill="#A6F6FF"/>
<mask id="mask0_1214_5" style="mask-type:luminance" maskUnits="userSpaceOnUse" x="5" y="5" width="28" height="28">
<path d="M5.64062 5.64062H32.3594V32.3594H5.64062V5.64062Z" fill="white"/>
</mask>
<g mask="url(#mask0_1214_5)">
<path fill-rule="evenodd" clip-rule="evenodd" d="M30.2531 26.4531C28.7999 26.4127 27.6725 26.5616 26.7277 26.9591C26.4557 27.0684 26.0191 27.0684 25.9832 27.4108C26.1286 27.5545 26.1462 27.7896 26.2737 27.9888C26.4914 28.3503 26.8735 28.8371 27.2185 29.0898L28.3813 29.9207C29.09 30.3537 29.8895 30.6068 30.5798 31.0402C30.9797 31.2932 31.3793 31.6183 31.7792 31.8895C31.9829 32.0339 32.1062 32.2692 32.3608 32.359V32.3043C32.2337 32.1424 32.1971 31.9077 32.0705 31.7263L31.5246 31.2029C30.9981 30.4987 30.3435 29.8842 29.6349 29.3791C29.0533 28.9817 27.7818 28.4401 27.5455 27.7722L27.5097 27.7317C27.9089 27.6913 28.3813 27.5508 28.7633 27.4424C29.3815 27.2805 29.9444 27.3161 30.5798 27.1537L31.4527 26.9008V26.7388C31.1255 26.4139 30.8893 25.9803 30.5444 25.6736C29.6178 24.8791 28.5995 24.1023 27.5455 23.4523C26.9823 23.0913 26.2553 22.856 25.6557 22.5496C25.4371 22.4411 25.0741 22.3869 24.9471 22.2064C24.6192 21.8098 24.4379 21.2855 24.2018 20.8157L22.7119 17.6736C22.3849 16.9693 22.1845 16.2649 21.7854 15.6149C19.9134 12.5448 17.8779 10.685 14.7524 8.86072C14.0804 8.48146 13.2809 8.31832 12.4308 8.12001L11.0682 8.04728C10.7769 7.92096 10.4865 7.57762 10.232 7.41493C9.19623 6.76478 6.52495 5.3564 5.76109 7.21261C5.27051 8.38631 6.48829 9.5419 6.90169 10.1382C7.21118 10.5535 7.61033 11.0229 7.82898 11.4925C7.95114 11.7993 7.99196 12.1247 8.11947 12.4498C8.40981 13.2442 8.68264 14.1295 9.06427 14.8702C9.26793 15.2495 9.48183 15.6473 9.73625 15.9902C9.88172 16.1925 10.1363 16.2792 10.1905 16.6041C9.9359 16.9656 9.91838 17.5068 9.77291 17.9589C9.11845 19.9996 9.37302 22.5278 10.2996 24.0303C10.5908 24.4815 11.277 25.4752 12.2082 25.0956C13.0259 24.7705 12.8435 23.7413 13.0797 22.8382C13.1346 22.6218 13.0981 22.4772 13.2067 22.3323V22.3728L13.952 23.8716C14.5153 24.7564 15.497 25.6776 16.3143 26.292C16.7501 26.6171 17.0955 27.1773 17.6404 27.3756V27.321H17.6046C17.4954 27.1591 17.3316 27.0862 17.1863 26.9598C16.8593 26.6349 16.4959 26.2374 16.2414 25.8764C15.4786 24.8652 14.8066 23.7453 14.2066 22.5897C13.9155 22.0299 13.6609 21.4159 13.4255 20.8561C13.3155 20.6392 13.3155 20.3137 13.1343 20.2061C12.8613 20.6027 12.4623 20.9468 12.2615 21.4341C11.9161 22.2104 11.8803 23.1677 11.7532 24.1611C11.6799 24.1792 11.7124 24.1611 11.6799 24.2014C11.0991 24.0574 10.8987 23.4607 10.6809 22.9556C10.1358 21.6734 10.0446 19.6147 10.517 18.1338C10.6441 17.7545 11.1899 16.5625 10.972 16.2014C10.8621 15.8582 10.4995 15.6599 10.2991 15.3887C10.063 15.0455 9.80928 14.6124 9.64556 14.2331C9.20974 13.2212 8.99184 12.102 8.51891 11.0907C8.30027 10.621 7.91908 10.1333 7.60988 9.70028C7.26447 9.21251 6.88373 8.86918 6.6109 8.29161C6.52006 8.08929 6.39299 7.76792 6.53831 7.5509C6.57423 7.40647 6.64742 7.34858 6.79214 7.31622C7.02816 7.11375 7.70117 7.3704 7.93734 7.47802C8.60931 7.74921 9.17263 8.00186 9.73595 8.38067C9.99052 8.56117 10.2634 8.9045 10.5904 8.9952H10.9724C11.554 9.12137 12.2077 9.03557 12.7522 9.19752C13.7156 9.50508 14.5875 9.95604 15.3695 10.4441C17.7496 11.943 19.7127 14.074 21.0387 16.6207C21.2566 17.0361 21.3475 17.4153 21.5479 17.8488C21.9299 18.734 22.4024 19.6367 22.7832 20.504C23.1652 21.3528 23.5285 22.2202 24.0735 22.9244C24.3464 23.3037 25.4362 23.502 25.9266 23.7008C26.2903 23.8627 26.8532 24.0085 27.1811 24.2068C27.7984 24.586 28.4164 25.0195 28.9975 25.4348C29.2878 25.6509 30.197 26.1026 30.2511 26.4629L30.2531 26.4531ZM11.7218 10.7598C11.4708 10.7576 11.2205 10.788 10.9773 10.8501V10.8906H11.0131C11.1586 11.1796 11.4131 11.3784 11.5947 11.6313L12.013 12.4982L12.0489 12.4578C12.3033 12.2773 12.4308 11.9883 12.4308 11.5553C12.3217 11.429 12.3038 11.3022 12.2129 11.1759C12.1038 10.9954 11.8677 10.9047 11.7218 10.7607V10.7598Z" fill="black"/>
</g>
</svg>
