<svg width="38" height="38" viewBox="0 0 39 38" fill="none" xmlns="http://www.w3.org/2000/svg">
<rect x="0.380859" width="38" height="38" rx="8" fill="#A6F6FF"/>
<path d="M26.8713 32.9395C26.7485 33.0045 26.7588 33.0251 26.8764 32.9653C26.9126 32.9505 26.9458 32.9292 26.9744 32.9024C26.9744 32.8807 26.9744 32.8807 26.8713 32.9395ZM27.1187 32.8055C27.06 32.8539 27.06 32.8539 27.1301 32.822C27.156 32.8098 27.1797 32.7934 27.2002 32.7735C27.2002 32.7456 27.1837 32.7518 27.1187 32.8055ZM27.2796 32.7085C27.2208 32.757 27.2208 32.757 27.291 32.725C27.317 32.7126 27.3407 32.6959 27.3611 32.6755C27.3611 32.6497 27.3446 32.6549 27.2796 32.7085ZM27.4425 32.6126C27.3838 32.6611 27.3838 32.6611 27.4518 32.6281C27.49 32.6074 27.5219 32.5858 27.5219 32.5796C27.5219 32.5538 27.5054 32.559 27.4425 32.6126ZM27.6622 32.4672C27.5498 32.5425 27.5106 32.5909 27.6137 32.5373C27.6828 32.495 27.8004 32.4022 27.7798 32.4022C27.7354 32.4187 27.6983 32.4466 27.6612 32.4672H27.6622ZM17.8007 2.00758C17.7254 2.01274 17.4995 2.03336 17.3015 2.04986C12.6116 2.47475 8.22374 4.9993 5.44255 8.88822C3.90558 11.0211 2.90653 13.4938 2.53039 16.0958C2.39736 17.0033 2.38086 17.2714 2.38086 18.5017C2.38086 19.731 2.39736 19.995 2.53039 20.9025C3.42858 27.1015 7.83806 32.3053 13.815 34.2338C14.8906 34.5772 16.0177 34.8144 17.3015 34.9598C17.8007 35.0134 19.959 35.0134 20.4581 34.9598C22.6773 34.7123 24.551 34.1647 26.4051 33.219C26.6898 33.0746 26.7434 33.0365 26.7052 33.0045C25.8007 31.8088 24.9039 30.6074 24.0148 29.4002L21.378 25.8392L18.075 20.9458C16.9763 19.3074 15.8663 17.6766 14.7452 16.0535C14.7338 16.0535 14.7194 18.2284 14.7132 20.8809C14.7018 25.5267 14.7018 25.7155 14.6431 25.8227C14.5867 25.9523 14.4857 26.0573 14.3585 26.1187C14.2564 26.1672 14.1646 26.1775 13.6768 26.1775H13.1189L12.9735 26.0867C12.8825 26.0283 12.8085 25.9468 12.759 25.8506L12.6889 25.7052L12.6941 19.2381L12.7054 12.771L12.8075 12.642C12.8727 12.5628 12.953 12.4972 13.0437 12.4492C13.1787 12.3842 13.2324 12.3739 13.7903 12.3739C14.4451 12.3739 14.5534 12.3997 14.7256 12.5884C16.0636 14.5786 17.3901 16.5766 18.705 18.5822C20.8489 21.8327 23.7755 26.2682 25.2141 28.4442L27.8303 32.4033L27.9592 32.3177C29.2165 31.4821 30.3559 30.4814 31.3467 29.3424C33.4252 26.9634 34.7739 24.0356 35.2313 20.9097C35.3644 20.0022 35.3809 19.7331 35.3809 18.5038C35.3809 17.2735 35.3644 17.0105 35.2313 16.103C34.3331 9.90402 29.9237 4.70023 23.9467 2.77072C22.8297 2.41691 21.68 2.17611 20.5148 2.05192C20.2024 2.01996 18.0698 1.9818 17.8017 2.00964L17.8007 2.00758ZM24.552 11.9872C24.6288 12.0249 24.6972 12.0775 24.7533 12.1419C24.8095 12.2064 24.8522 12.2814 24.8789 12.3626C24.9068 12.4492 24.9119 14.2426 24.9068 18.2821L24.8954 24.0819L23.8756 22.5144L22.8495 20.9458V16.7352C22.8495 14.0054 22.8608 12.475 22.8753 12.3997C22.9258 12.2271 23.0416 12.0809 23.1981 11.9923C23.3259 11.9274 23.3754 11.9222 23.8859 11.9222C24.3633 11.9222 24.4448 11.9274 24.552 11.9872Z" fill="black"/>
</svg>
