<svg width="39" height="38" viewBox="0 0 39 38" fill="none" xmlns="http://www.w3.org/2000/svg">
<path d="M29.4746 0H9.28711C4.36832 0 0.380859 3.98746 0.380859 8.90625V29.0938C0.380859 34.0125 4.36832 38 9.28711 38H29.4746C34.3934 38 38.3809 34.0125 38.3809 29.0938V8.90625C38.3809 3.98746 34.3934 0 29.4746 0Z" fill="#A6F6FF"/>
<path d="M18.1752 4.6188C18.9054 4.20095 19.8562 4.19902 20.5857 4.6188C24.2553 6.69247 27.9262 8.76273 31.5953 10.8376C32.2855 11.2263 32.747 11.9944 32.74 12.7895V25.265C32.7452 26.0931 32.238 26.8795 31.5099 27.2594C27.8523 29.3216 24.1964 31.3862 20.5394 33.4485C19.7943 33.8745 18.8243 33.8417 18.1023 33.3806C17.0058 32.745 15.9074 32.1124 14.8107 31.4774C14.5866 31.3438 14.3339 31.2375 14.1757 31.0202C14.3157 30.8317 14.5658 30.8082 14.769 30.7258C15.2266 30.5802 15.6472 30.3466 16.0675 30.1199C16.174 30.0472 16.3037 30.0751 16.4057 30.1401C17.3433 30.6777 18.2729 31.2311 19.2137 31.7636C19.4143 31.8795 19.6176 31.7256 19.7892 31.63C23.3784 29.6013 26.972 27.5804 30.5608 25.5512C30.6938 25.4872 30.7673 25.346 30.7565 25.2004C30.759 21.085 30.7571 16.9689 30.7578 12.8534C30.7729 12.6883 30.6773 12.5363 30.5279 12.4686C26.883 10.4159 23.2397 8.36017 19.5954 6.30698C19.5323 6.26354 19.4575 6.24022 19.3809 6.24009C19.3043 6.23996 19.2294 6.26302 19.1662 6.30624C15.5217 8.36017 11.8794 10.418 8.23493 12.4704C8.08604 12.5382 7.98615 12.6877 8.00381 12.8534C8.00455 16.9689 8.00381 21.085 8.00381 25.201C7.99749 25.2721 8.01311 25.3434 8.04857 25.4054C8.08402 25.4673 8.13762 25.5169 8.20212 25.5474C9.17454 26.0989 10.1483 26.6465 11.1214 27.1961C11.6698 27.4911 12.3428 27.6665 12.9468 27.4405C13.4798 27.2493 13.8534 26.7053 13.8433 26.1394C13.8484 22.048 13.8408 17.9561 13.8471 13.8651C13.8337 13.6836 14.006 13.5335 14.1827 13.5507C14.65 13.5475 15.1178 13.5443 15.5851 13.5519C15.7802 13.5475 15.9143 13.7431 15.8903 13.926C15.8884 18.0433 15.8953 22.1607 15.8872 26.2779C15.8884 27.3753 15.4376 28.5693 14.4225 29.1062C13.1723 29.7539 11.6267 29.6166 10.3914 28.9955C9.32208 28.4617 8.30143 27.8318 7.25108 27.26C6.52107 26.8822 6.01638 26.0927 6.02158 25.2651V12.7895C6.01386 11.9779 6.49376 11.1959 7.20537 10.8128C10.8624 8.74907 14.5189 6.68357 18.1752 4.6188Z" fill="black"/>
<path d="M21.3653 13.2607C22.9603 13.1579 24.6678 13.1998 26.103 13.9856C27.2144 14.5877 27.8304 15.8515 27.85 17.086C27.819 17.2524 27.6448 17.3443 27.4859 17.3329C27.0232 17.3323 26.5602 17.3393 26.0975 17.3298C25.9011 17.3374 25.7871 17.1564 25.7625 16.9829C25.6295 16.3921 25.3072 15.8071 24.7513 15.5221C23.8978 15.0949 22.9083 15.1164 21.9776 15.1253C21.2982 15.1613 20.5676 15.2202 19.992 15.6196C19.5501 15.9223 19.4159 16.5333 19.5735 17.0253C19.7223 17.3786 20.13 17.4926 20.4639 17.5977C22.386 18.1005 24.4228 18.0503 26.3083 18.7119C27.0889 18.9816 27.8525 19.506 28.1197 20.3233C28.4693 21.4188 28.3161 22.728 27.5366 23.6074C26.9046 24.331 25.9841 24.7249 25.066 24.9388C23.8447 25.2112 22.5772 25.2182 21.3368 25.0972C20.1706 24.9642 18.9568 24.6578 18.0565 23.8633C17.2866 23.1947 16.9106 22.153 16.9478 21.1477C16.9567 20.9779 17.1258 20.8595 17.2885 20.8734C17.7544 20.8697 18.2205 20.8684 18.6865 20.8742C18.8728 20.8608 19.0107 21.0217 19.0203 21.1972C19.1061 21.7599 19.3176 22.3507 19.8085 22.6842C20.7556 23.2953 21.9441 23.2535 23.0286 23.2705C23.9271 23.2308 24.9357 23.2187 25.6688 22.6248C26.0557 22.2861 26.1703 21.7194 26.0658 21.2319C25.9525 20.8203 25.5219 20.6285 25.1521 20.5031C23.2546 19.9029 21.1949 20.1207 19.3159 19.4419C18.5529 19.1723 17.8152 18.6626 17.5221 17.8788C17.1132 16.7696 17.3005 15.3974 18.1616 14.5479C19.0012 13.7026 20.213 13.377 21.3653 13.2607Z" fill="black"/>
</svg>
