<svg width="39" height="38" viewBox="0 0 39 38" fill="none" xmlns="http://www.w3.org/2000/svg">
<rect x="0.949219" width="38" height="38" rx="8" fill="#A6F6FF"/>
<path d="M19.4492 28C10.333 28 2.94922 23.9737 2.94922 19C2.94922 14.0263 10.333 10 19.4492 10C28.5655 10 35.9492 14.0263 35.9492 19C35.9492 23.9737 28.5655 28 19.4492 28ZM12.313 16.2319C13.0555 16.2319 13.5642 16.3799 13.8117 16.6908C14.0592 16.9868 14.1142 17.5197 13.9905 18.2155C13.853 19 13.5917 19.5033 13.193 19.8289C12.808 20.1546 12.2167 20.3174 11.4192 20.3174H10.223L10.9517 16.2319H12.313ZM7.50047 24.4474H9.48047L9.94797 21.8569H11.6392C12.3817 21.8569 12.9867 21.7681 13.468 21.6053C13.9492 21.4276 14.3892 21.1464 14.788 20.7467C15.118 20.4211 15.3792 20.0658 15.5855 19.6661C15.7917 19.2812 15.943 18.8372 16.0117 18.3635C16.2317 17.2089 16.0805 16.3059 15.558 15.6694C15.0217 15.0181 14.1967 14.7072 13.0555 14.7072H9.26047L7.50047 24.4474ZM17.4692 12.1168L15.7092 21.8569H17.6617L18.6792 16.2763H20.2467C20.7417 16.2763 21.0717 16.3651 21.223 16.5428C21.3742 16.7204 21.4017 17.0461 21.3192 17.5197L20.5355 21.8569H22.5292L23.3405 17.3125C23.5192 16.3947 23.3817 15.7286 22.9692 15.2993C22.5567 14.8997 21.8005 14.7072 20.7005 14.7072H18.9542L19.4492 12.1168H17.4692ZM27.6992 16.2319C28.4555 16.2319 28.9505 16.3799 29.198 16.6908C29.4455 16.9868 29.5005 17.5197 29.3767 18.2155C29.2392 19 28.978 19.5033 28.593 19.8289C28.1942 20.1546 27.603 20.3174 26.8055 20.3174H25.6367L26.3242 16.2319H27.6992ZM22.8867 24.4474H24.8667L25.3342 21.8569H27.0117C27.768 21.8569 28.3867 21.7681 28.868 21.6053C29.3492 21.4276 29.7617 21.1464 30.1742 20.7467C30.5042 20.4211 30.7792 20.0658 30.9717 19.6661C31.178 19.2812 31.3292 18.8372 31.4117 18.3635C31.618 17.2089 31.4667 16.3059 30.9442 15.6694C30.4492 15.0181 29.583 14.7072 28.4417 14.7072H24.6605L22.8867 24.4474Z" fill="black"/>
</svg>
