<svg width="38" height="38" viewBox="0 0 38 38" fill="none" xmlns="http://www.w3.org/2000/svg">
<rect width="38" height="38" rx="8" fill="#A6F6FF"/>
<path d="M20.6003 2.13587C11.5633 0.976726 3.29508 7.36233 2.1359 16.4003C0.976719 25.437 7.36114 33.7036 16.3994 34.8641C25.4377 36.0233 33.7074 29.6377 34.8638 20.5997C36.0244 11.563 29.6399 3.29639 20.6003 2.13587ZM23.998 12.4279C23.6918 12.4319 23.3993 12.5553 23.1826 12.7717L17.0595 18.8946L16.6373 18.4725L15.7532 17.5884C21.7883 11.5713 22.876 11.5135 23.998 12.4279ZM17.3111 19.1119L23.4164 13.0068C23.4964 12.9229 23.5927 12.8562 23.6994 12.8107C23.8061 12.7653 23.9209 12.7421 24.0369 12.7426C24.1529 12.7431 24.2675 12.7672 24.3738 12.8135C24.4801 12.8598 24.5759 12.9273 24.6552 13.0119C24.7346 13.0964 24.7958 13.1963 24.8352 13.3054C24.8746 13.4144 24.8914 13.5304 24.8844 13.6461C24.8775 13.7619 24.847 13.875 24.7948 13.9785C24.7427 14.0821 24.6699 14.1739 24.5811 14.2484L18.1196 19.9204L17.3111 19.1119ZM17.7649 20.0662L16.2523 20.3934C16.2342 20.3975 16.2153 20.3953 16.1986 20.3874C16.1819 20.3794 16.1684 20.366 16.1602 20.3494C16.151 20.3335 16.1473 20.315 16.1498 20.2969C16.1523 20.2787 16.1608 20.2618 16.1739 20.249L17.0608 19.3621L17.7649 20.0662ZM13.9106 19.435L15.5221 17.8235L16.7308 19.0308L14.0096 19.6165C13.9869 19.6224 13.9629 19.6203 13.9416 19.6105C13.9203 19.6007 13.903 19.5839 13.8927 19.5629C13.8799 19.543 13.8746 19.5191 13.8779 19.4956C13.8812 19.4722 13.8928 19.4507 13.9106 19.435ZM8.89709 27.7649C8.88334 27.7637 8.86997 27.7598 8.85775 27.7534C8.84553 27.747 8.83469 27.7382 8.82587 27.7276C8.81705 27.717 8.81042 27.7047 8.80636 27.6916C8.8023 27.6784 8.80089 27.6645 8.80221 27.6508C8.80482 27.6269 8.81549 27.6046 8.83246 27.5875H8.83521L10.136 26.2867L11.8163 27.967L8.89709 27.7649ZM12.2316 26.0379C12.1693 26.0701 12.1195 26.1223 12.0904 26.1861C12.0612 26.2499 12.0543 26.3217 12.0707 26.3899L12.3499 27.5793C12.3589 27.6159 12.3556 27.6545 12.3405 27.6891C12.3254 27.7237 12.2993 27.7523 12.2663 27.7706C12.2333 27.7889 12.1952 27.7959 12.1579 27.7904C12.1205 27.7849 12.086 27.7672 12.0597 27.7401H12.0556L10.7713 26.4559L10.367 26.0502L15.54 20.8829L18.0426 20.3425L19.2444 21.5443C17.5187 23.0596 15.1591 24.5707 12.2316 26.0379ZM19.4906 21.3243H19.4878L18.3342 20.1707L24.7956 14.4987C24.8553 14.4456 24.9101 14.3871 24.9592 14.3241C24.7557 16.1735 22.1692 18.786 19.4906 21.3243ZM24.5192 12.4417L24.5151 12.4389C24.0604 11.9821 23.7993 11.3677 23.786 10.7234C23.7727 10.0791 24.0082 9.45441 24.4435 8.97923C24.8789 8.50405 25.4806 8.21491 26.1237 8.17191C26.7667 8.12891 27.4016 8.33536 27.8964 8.74835L25.6825 10.9663C25.6672 10.9815 25.655 10.9996 25.6467 11.0195C25.6384 11.0395 25.6341 11.0608 25.6341 11.0824C25.6341 11.1041 25.6384 11.1254 25.6467 11.1454C25.655 11.1653 25.6672 11.1834 25.6825 11.1986L27.3972 12.9133C26.9285 13.1459 26.3986 13.2256 25.8822 13.1409C25.3659 13.0563 24.8891 12.8117 24.5192 12.4417ZM28.0641 12.4417C27.9504 12.554 27.8255 12.6544 27.6915 12.7414L26.0304 11.0818L28.1384 8.97385C29.0473 9.96387 29.0143 11.4929 28.0641 12.4417ZM27.9266 10.3186C27.8935 10.3426 27.8688 10.3762 27.8557 10.4149C27.8426 10.4536 27.842 10.4954 27.8537 10.5345C27.9027 10.6336 27.9219 10.7449 27.9089 10.8547C27.896 10.9645 27.8515 11.0682 27.7808 11.1533C27.7651 11.1731 27.7534 11.1959 27.7465 11.2202C27.7395 11.2446 27.7375 11.2701 27.7404 11.2953C27.7434 11.3204 27.7512 11.3448 27.7636 11.3669C27.776 11.389 27.7926 11.4085 27.8125 11.4241C27.8455 11.45 27.886 11.4645 27.928 11.4654C27.9558 11.4651 27.9832 11.4589 28.0084 11.447C28.0336 11.4351 28.0559 11.418 28.0737 11.3966C28.1918 11.2547 28.2661 11.0815 28.2873 10.8981C28.3085 10.7147 28.2759 10.5291 28.1934 10.364C28.179 10.3433 28.1606 10.3257 28.1393 10.3123C28.1181 10.2988 28.0943 10.2896 28.0695 10.2854C28.0447 10.2812 28.0192 10.2819 27.9947 10.2877C27.9702 10.2934 27.947 10.3039 27.9266 10.3186Z" fill="#070707"/>
</svg>
