<svg width="38" height="38" viewBox="0 0 41 38" fill="none" xmlns="http://www.w3.org/2000/svg">
<rect x="0.380859" width="40" height="38" rx="9" fill="#A6F6FF"/>
<path d="M30.1375 13.7497C30.0195 13.7117 29.9015 13.6745 29.7835 13.6381C29.4177 13.5251 29.1975 13.1469 29.2812 12.7734C30.05 9.18161 29.5438 6.29494 27.8375 5.34275C26.1938 4.43276 23.5125 5.37891 20.8 7.65692C20.7107 7.73097 20.6222 7.80636 20.5345 7.88263C20.2389 8.13985 19.7969 8.14157 19.5 7.88592C16.6562 5.45123 13.8063 4.42673 12.1 5.38494C10.4625 6.30096 9.975 9.0189 10.6625 12.4178C10.7767 12.9785 10.448 13.5414 9.90476 13.7213C9.84637 13.7406 9.78851 13.7602 9.73125 13.7798C6.39375 14.8947 4 16.6544 4 18.4744C4 20.3547 6.55 22.241 10.0188 23.386C10.4877 23.5367 10.7677 24.0283 10.6647 24.51C10.6491 24.5829 10.6338 24.6562 10.6188 24.7299C9.9625 28.0746 10.475 30.7262 12.1125 31.6362C13.8 32.5763 16.6375 31.6121 19.4 29.2799C19.7757 28.959 20.3366 28.9592 20.7129 29.2794C20.7773 29.3341 20.8418 29.3885 20.9062 29.4426C23.5812 31.6603 26.225 32.5583 27.8563 31.6483C29.5438 30.7081 30.0938 27.8576 29.3813 24.3864C29.366 24.3145 29.3503 24.2422 29.3341 24.1695C29.2603 23.8369 29.4559 23.4992 29.7812 23.398C33.3875 22.247 36 20.3848 36 18.4744C36 16.6484 33.5375 14.8766 30.1375 13.7497ZM21.6812 8.6332C24.0063 6.68063 26.175 5.91527 27.1625 6.46368C28.2188 7.04824 28.625 9.41062 27.9625 12.5142C27.8898 12.8548 27.5536 13.0586 27.2121 12.9908C26.4437 12.8382 25.6701 12.7119 24.8935 12.6138C24.0819 12.5112 23.3422 12.0929 22.8356 11.4505C22.4434 10.9532 22.0356 10.467 21.6121 9.99376C21.2553 9.59512 21.2724 8.97817 21.6812 8.6332ZM14.45 21.6022C14.8308 22.2285 14.3304 23.0348 13.6077 22.9126C13.5791 22.9078 13.5504 22.9029 13.5218 22.898C12.9935 22.8071 12.6774 22.2665 12.8606 21.7627C12.8673 21.7443 12.874 21.7259 12.8808 21.7074C13.1338 21.0166 14.0701 20.9721 14.45 21.6022ZM12.8738 15.2769C12.6952 14.7853 13.0007 14.2563 13.5156 14.1641C13.5494 14.158 13.5834 14.152 13.6174 14.1461C14.3189 14.0229 14.8061 14.7998 14.4438 15.413C14.07 16.0381 13.1351 15.993 12.8855 15.3088C12.8816 15.2981 12.8777 15.2875 12.8738 15.2769ZM15.6125 20.9513C14.7086 19.4459 14.7111 17.5683 15.6062 16.0578C16.5086 14.5352 18.1563 13.6144 19.9262 13.6111C19.9508 13.6111 19.9754 13.6111 20 13.6111C20.0292 13.6111 20.0584 13.6111 20.0875 13.6112C21.8485 13.6151 23.476 14.5391 24.3875 16.0458C25.294 17.5443 25.2903 19.4348 24.3938 20.9392C23.493 22.4592 21.8548 23.3826 20.088 23.3859C20.0587 23.386 20.0293 23.386 20 23.386C19.9858 23.386 19.9717 23.386 19.9576 23.386C18.1815 23.3844 16.5267 22.474 15.6125 20.9513ZM25.5562 21.5901C25.9473 20.9395 26.9123 20.977 27.1808 21.687C27.3734 22.1963 27.06 22.7533 26.5243 22.8505C26.4798 22.8586 26.4352 22.8665 26.3906 22.8744C25.6796 22.9999 25.1834 22.2084 25.5562 21.5901ZM27.1412 15.296C26.8844 15.9954 25.9347 16.039 25.55 15.4009C25.1869 14.7935 25.6722 14.0215 26.3688 14.1462C26.413 14.1541 26.4571 14.1621 26.501 14.1701C27.0185 14.2652 27.3226 14.8021 27.1412 15.296ZM19.3838 10.8815C19.7204 10.5053 20.3054 10.5047 20.6409 10.8817C20.6565 10.8992 20.672 10.9167 20.6876 10.9343C21.1716 11.4811 20.7475 12.3171 20.0171 12.3169C19.2822 12.3166 18.8585 11.4704 19.3477 10.9219C19.3597 10.9084 19.3718 10.8949 19.3838 10.8815ZM12.7625 6.50586C13.8125 5.91527 16.1438 6.75897 18.6 8.85618C18.8644 9.08055 18.8745 9.4855 18.6394 9.74047C18.1257 10.2977 17.6341 10.8737 17.1646 11.4655C16.6621 12.0989 15.9304 12.5111 15.1281 12.6105C14.4608 12.6932 13.7964 12.7959 13.1348 12.9179C12.6064 13.0154 12.0901 12.6955 11.975 12.1707C11.3875 9.25393 11.775 7.05427 12.7625 6.50586ZM11.4914 21.6246C11.3405 22.0519 10.8867 22.2983 10.4563 22.1566C9.125 21.7528 7.6125 21.114 6.51875 20.2763C6.09651 19.9942 5.76656 19.6095 5.55881 19.1675C5.35268 18.729 5.31174 18.2037 5.56611 17.7913C6.15746 16.8325 7.88127 15.7723 10.1688 15.0032C10.7671 14.8008 11.4022 15.1476 11.6189 15.7408C11.8053 16.2509 12.0049 16.7564 12.2176 17.2562C12.5567 18.0535 12.5576 18.9561 12.2188 19.7534C11.957 20.3695 11.7143 20.9939 11.4914 21.6246ZM18.5188 28.2976C17.4875 29.2076 16.2937 29.9307 14.9938 30.4249C14.5 30.6522 13.9524 30.733 13.4209 30.6629C12.9887 30.606 12.5653 30.4159 12.313 30.0606C11.6775 29.1656 11.4817 27.3103 11.9437 24.9589C12.0594 24.3913 12.6189 24.0462 13.1895 24.1458C13.8249 24.2566 14.4631 24.3487 15.1047 24.4215C15.9365 24.5159 16.6981 24.9371 17.2205 25.5912C17.6525 26.1323 18.103 26.6602 18.5696 27.1728C18.8678 27.5004 18.8573 28.0119 18.5188 28.2976ZM20.6922 26.1253C20.3527 26.5128 19.7495 26.5224 19.4059 26.1386C19.383 26.1131 19.3601 26.0874 19.3372 26.0616C18.8544 25.5184 19.2733 24.6817 20 24.6817C20.756 24.6817 21.1904 25.5567 20.6922 26.1253ZM28.2188 28.6411C28.1794 29.1556 27.9839 29.6466 27.6644 30.054C27.3877 30.4069 26.9905 30.6722 26.5432 30.7035C25.4215 30.7818 23.6611 30.0162 21.7875 28.4663C21.3419 28.098 21.3208 27.4276 21.7016 26.9927C22.0995 26.5382 22.4831 26.0728 22.8517 25.5968C23.3603 24.9401 24.1109 24.5119 24.9354 24.4118C25.6785 24.3216 26.419 24.2052 27.1549 24.0626C27.5678 23.9826 27.9771 24.2337 28.0625 24.6455C28.3687 25.9472 28.4188 27.3032 28.2188 28.6411ZM29.3563 22.1626C29.0589 22.2548 28.749 22.0889 28.6448 21.7955C28.3973 21.0991 28.1222 20.4114 27.8221 19.7334C27.4671 18.9314 27.4646 18.016 27.8104 17.21C28.0368 16.6824 28.2473 16.1488 28.443 15.6096C28.6298 15.0944 29.1783 14.7993 29.7 14.967C32.6125 15.9313 34.6562 17.3655 34.6562 18.4624C34.6562 19.6436 32.475 21.1682 29.3563 22.1626ZM20 21.2586C21.5812 21.2586 22.8625 20.0232 22.8625 18.4985C22.8625 16.9738 21.5812 15.7384 20 15.7384C18.4187 15.7384 17.1375 16.9738 17.1375 18.4985C17.1375 20.0232 18.4187 21.2586 20 21.2586Z" fill="black"/>
</svg>
