<svg width="38" height="38" viewBox="0 0 38 38" fill="none" xmlns="http://www.w3.org/2000/svg">
<path d="M29.0938 0H8.90625C3.98746 0 0 3.98746 0 8.90625V29.0938C0 34.0125 3.98746 38 8.90625 38H29.0938C34.0125 38 38 34.0125 38 29.0938V8.90625C38 3.98746 34.0125 0 29.0938 0Z" fill="#A6F6FF"/>
<mask id="mask0_2019_15" style="mask-type:luminance" maskUnits="userSpaceOnUse" x="3" y="3" width="31" height="31">
<path d="M3 3H34V34H3V3Z" fill="white"/>
</mask>
<g mask="url(#mask0_2019_15)">
<path d="M24.4807 24.3939C25.6239 24.2751 26.4919 23.2792 26.4531 22.0844C26.4338 21.5101 26.1931 20.9656 25.7814 20.5647C25.3697 20.1639 24.819 19.9378 24.2444 19.9338H24.1643C22.9411 19.9725 21.9943 21.0085 22.033 22.2433C22.0744 22.8413 22.3107 23.358 22.6659 23.7158C21.3239 26.3857 19.2727 28.3361 16.1947 29.9688C14.1048 31.0848 11.9348 31.4826 9.76607 31.2036C7.99003 30.9646 6.60924 30.1677 5.74124 28.854C4.47928 26.9036 4.36174 24.7917 5.42607 22.6812C6.17524 21.1686 7.3597 20.0526 8.10886 19.4959C7.90567 18.8272 7.73454 18.1492 7.59607 17.4641C1.87528 21.6465 2.46815 27.3015 4.20157 29.97C5.50357 31.9618 8.14632 33.1966 11.0668 33.1966C11.8641 33.202 12.6589 33.1083 13.4331 32.9176C18.4835 31.923 22.3094 28.8954 24.4794 24.3952M31.4222 19.4572C28.4242 15.9128 24.0054 13.9611 18.9563 13.9611H18.3247C18.1448 13.6026 17.8689 13.301 17.5277 13.0901C17.1865 12.8791 16.7935 12.767 16.3923 12.7663H16.3122C15.0903 12.8064 14.1422 13.8423 14.1823 15.0771C14.221 16.2719 15.2079 17.2265 16.391 17.2265H16.4711C16.8878 17.2049 17.29 17.0665 17.6317 16.8271C17.9734 16.5877 18.2408 16.257 18.4034 15.8728H19.1139C22.1118 15.8728 24.9522 16.7485 27.5162 18.4613C29.4885 19.7762 30.9094 21.4877 31.6973 23.5595C32.3689 25.2309 32.3302 26.8636 31.6198 28.2586C30.5141 30.3692 28.6606 31.5239 26.2142 31.5239C24.637 31.5239 23.1374 31.046 22.3482 30.6869C21.7803 31.1935 21.188 31.672 20.5734 32.1207C22.2694 32.9176 24.0054 33.3555 25.6626 33.3555C29.4498 33.3555 32.2501 31.2449 33.3157 29.1343C34.4589 26.8248 34.3801 22.8426 31.4222 19.4572ZM11.3832 25.0707C11.422 26.2655 12.4088 27.2214 13.592 27.2214H13.6708C14.894 27.1826 15.8408 26.1467 15.802 24.9119C15.7827 24.3376 15.542 23.7931 15.1303 23.3922C14.7186 22.9914 14.1679 22.7653 13.5933 22.7612H13.5132C13.4194 22.755 13.3253 22.7682 13.2368 22.8C11.6196 20.0927 10.9492 17.1464 11.1856 13.9598C11.3432 11.5702 12.1324 9.49971 13.5132 7.78696C14.6576 6.31446 16.8664 5.59758 18.366 5.55754C22.5471 5.47746 24.3219 10.7345 24.4407 12.8451C24.9535 12.964 25.8215 13.243 26.4131 13.4419C25.939 6.99129 21.9956 3.64587 18.2071 3.64587C14.6576 3.64587 11.3832 6.23437 10.0812 10.0577C8.26645 15.1546 9.44961 20.0526 11.6597 23.916C11.462 24.195 11.3432 24.6329 11.3832 25.0707Z" fill="black"/>
</g>
</svg>
