<svg width="38" height="38" viewBox="0 0 38 38" fill="none" xmlns="http://www.w3.org/2000/svg">
<rect width="38" height="38" rx="8" fill="#A6F6FF"/>
<path d="M18.5 2C20.6668 2 22.8124 2.42679 24.8143 3.25599C26.8161 4.08519 28.6351 5.30057 30.1673 6.83274C31.6994 8.3649 32.9148 10.1839 33.744 12.1857C34.5732 14.1876 35 16.3332 35 18.5C35 22.8761 33.2616 27.0729 30.1673 30.1673C27.0729 33.2616 22.8761 35 18.5 35C16.3332 35 14.1876 34.5732 12.1857 33.744C10.1839 32.9148 8.3649 31.6994 6.83274 30.1673C3.73839 27.0729 2 22.8761 2 18.5C2 14.1239 3.73839 9.92709 6.83274 6.83274C9.92709 3.73839 14.1239 2 18.5 2ZM15.2 23.9945C15.464 24.8855 15.431 25.7105 15.2 26.4695C15.2 26.552 15.134 26.6345 15.101 26.75C15.068 26.75 15.035 26.8655 14.9855 26.948C14.804 27.344 14.54 27.7235 14.2265 28.0535C13.2695 29.1095 11.9 29.5055 11.3555 29.1755C10.7285 28.8125 11.075 27.3275 12.164 26.156C13.352 24.902 15.068 24.077 15.068 24.077L15.2 23.9945ZM28.8455 9.062C28.103 6.125 23.2355 5.168 18.6485 6.8015C15.9095 7.775 12.9395 9.293 10.811 11.2895C8.2865 13.6655 7.874 15.728 8.039 16.586C8.6 19.622 12.791 21.6185 14.507 23.087V23.1035C14.012 23.351 10.316 25.2155 9.425 27.1295C8.534 29.1425 9.59 30.5945 10.25 30.7925C12.461 31.3865 14.6885 30.314 15.8765 28.5155C17.0315 26.7995 16.949 24.572 16.4375 23.45C17.1305 23.285 17.939 23.2025 18.962 23.318C21.866 23.6645 22.427 25.463 22.3115 26.222C22.2125 26.981 21.602 27.3935 21.404 27.5255C21.206 27.641 21.14 27.6905 21.1565 27.7895C21.173 27.9215 21.272 27.9215 21.437 27.8885C21.6845 27.839 22.9715 27.278 23.021 25.8755C23.087 24.0935 21.3875 22.1135 18.3845 22.163C17.147 22.196 16.3715 22.3115 15.8105 22.526L15.6785 22.3775C13.814 20.3975 10.382 18.995 10.5305 16.322C10.58 15.3485 10.91 12.8075 17.1305 9.7055C22.2125 7.1645 26.288 7.8575 26.9975 9.425C28.004 11.6195 24.8195 15.728 19.5395 16.322C17.5265 16.553 16.454 15.761 16.19 15.4805C15.9095 15.2 15.8765 15.1505 15.7775 15.2C15.596 15.3155 15.7115 15.5795 15.7775 15.7445C15.926 16.157 16.586 16.85 17.675 17.246C18.6485 17.5595 21.0245 17.741 23.879 16.6355C27.08 15.398 29.588 11.9495 28.8455 9.062Z" fill="black"/>
</svg>
