<svg width="38" height="38" viewBox="0 0 38 38" fill="none" xmlns="http://www.w3.org/2000/svg">
<path d="M29.0938 0H8.90625C3.98746 0 0 3.98746 0 8.90625V29.0938C0 34.0125 3.98746 38 8.90625 38H29.0938C34.0125 38 38 34.0125 38 29.0938V8.90625C38 3.98746 34.0125 0 29.0938 0Z" fill="#A6F6FF"/>
<path d="M5.28534 7.00134C4.98503 7.00064 4.68754 7.05927 4.40995 7.17387C4.13237 7.28847 3.88015 7.45678 3.6678 7.66913C3.45545 7.88149 3.28714 8.1337 3.17254 8.41129C3.05794 8.68887 2.99931 8.98636 3.00001 9.28668V18.4307C3.00001 19.6973 4.02001 20.716 5.28534 20.716C5.58577 20.7169 5.8834 20.6584 6.16114 20.5439C6.43889 20.4293 6.69126 20.2611 6.90375 20.0487C7.11624 19.8363 7.28467 19.5841 7.39936 19.3064C7.51404 19.0287 7.57271 18.7311 7.57201 18.4307V9.28534C7.57271 8.98492 7.51404 8.68732 7.39936 8.40964C7.28467 8.13197 7.11624 7.8797 6.90375 7.66733C6.69126 7.45496 6.43889 7.28667 6.16114 7.17215C5.8834 7.05763 5.58577 6.99913 5.28534 7.00001V7.00134ZM14.428 7.00134C14.1277 7.00064 13.8302 7.05927 13.5526 7.17387C13.275 7.28847 13.0228 7.45678 12.8105 7.66913C12.5981 7.88149 12.4298 8.1337 12.3152 8.41129C12.2006 8.68887 12.142 8.98636 12.1427 9.28668V10.8107C12.1427 12.0773 13.1627 13.0973 14.428 13.0973C14.7285 13.0982 15.0263 13.0397 15.3041 12.9251C15.582 12.8105 15.8344 12.6421 16.0469 12.4296C16.2594 12.217 16.4278 11.9646 16.5424 11.6868C16.657 11.409 16.7156 11.1112 16.7147 10.8107V9.28668C16.7154 8.98614 16.6567 8.68843 16.5419 8.41067C16.4271 8.13291 16.2586 7.88057 16.0459 7.66819C15.8333 7.4558 15.5808 7.28754 15.3029 7.1731C15.025 7.05866 14.7272 7.00029 14.4267 7.00134H14.428ZM23.572 7.00134C23.2716 7.00046 22.974 7.05897 22.6962 7.17349C22.4185 7.28801 22.1661 7.45629 21.9536 7.66866C21.7411 7.88103 21.5727 8.1333 21.458 8.41098C21.3433 8.68865 21.2846 8.98625 21.2853 9.28668V29.0987C21.2853 30.3653 22.3053 31.384 23.572 31.384C23.8723 31.3847 24.1698 31.3261 24.4474 31.2115C24.725 31.0969 24.9772 30.9286 25.1896 30.7162C25.4019 30.5039 25.5702 30.2517 25.6848 29.9741C25.7994 29.6965 25.858 29.399 25.8573 29.0987V9.28534C25.858 8.98503 25.7994 8.68754 25.6848 8.40995C25.5702 8.13237 25.4019 7.88015 25.1896 7.6678C24.9772 7.45545 24.725 7.28714 24.4474 7.17254C24.1698 7.05794 23.8723 6.99931 23.572 7.00001V7.00134ZM32.7147 7.00134C32.4143 7.00046 32.1166 7.05897 31.8389 7.17349C31.5611 7.28801 31.3088 7.45629 31.0963 7.66866C30.8838 7.88103 30.7154 8.1333 30.6007 8.41098C30.486 8.68865 30.4273 8.98625 30.428 9.28668V18.4307C30.428 19.6973 31.448 20.716 32.7147 20.716C33.015 20.7167 33.3125 20.6581 33.5901 20.5435C33.8677 20.4289 34.1199 20.2606 34.3322 20.0482C34.5446 19.8359 34.7129 19.5837 34.8275 19.3061C34.9421 19.0285 35.0007 18.731 35 18.4307V9.28534C35.0007 8.98503 34.9421 8.68754 34.8275 8.40995C34.7129 8.13237 34.5446 7.88015 34.3322 7.6678C34.1199 7.45545 33.8677 7.28714 33.5901 7.17254C33.3125 7.05794 33.015 6.99931 32.7147 7.00001V7.00134ZM14.428 17.668C14.1277 17.6673 13.8302 17.7259 13.5526 17.8405C13.275 17.9551 13.0228 18.1234 12.8105 18.3358C12.5981 18.5482 12.4298 18.8004 12.3152 19.078C12.2006 19.3555 12.142 19.653 12.1427 19.9533V29.0973C12.1427 30.364 13.1627 31.3827 14.428 31.3827C14.7284 31.3836 15.0261 31.3251 15.3038 31.2105C15.5816 31.096 15.8339 30.9277 16.0464 30.7154C16.2589 30.503 16.4273 30.2507 16.542 29.973C16.6567 29.6954 16.7154 29.3978 16.7147 29.0973V19.952C16.7154 19.6516 16.6567 19.354 16.542 19.0763C16.4273 18.7986 16.2589 18.5464 16.0464 18.334C15.8339 18.1216 15.5816 17.9533 15.3038 17.8388C15.0261 17.7243 14.7284 17.6658 14.428 17.6667V17.668ZM5.28534 25.2867C4.98492 25.286 4.68732 25.3446 4.40964 25.4593C4.13197 25.574 3.8797 25.7424 3.66733 25.9549C3.45496 26.1674 3.28667 26.4198 3.17215 26.6975C3.05763 26.9753 2.99913 27.2729 3.00001 27.5733V29.0973C3.00001 30.364 4.02001 31.3827 5.28534 31.3827C5.58577 31.3836 5.8834 31.3251 6.16114 31.2105C6.43889 31.096 6.69126 30.9277 6.90375 30.7154C7.11624 30.503 7.28467 30.2507 7.39936 29.973C7.51404 29.6954 7.57271 29.3978 7.57201 29.0973V27.5733C7.57289 27.2728 7.51434 26.9751 7.39974 26.6972C7.28514 26.4194 7.11674 26.167 6.90422 25.9545C6.69171 25.742 6.43928 25.5736 6.16145 25.4589C5.88362 25.3443 5.58588 25.2858 5.28534 25.2867ZM32.7147 25.2867C32.4141 25.2858 32.1164 25.3443 31.8386 25.4589C31.5607 25.5736 31.3083 25.742 31.0958 25.9545C30.8833 26.167 30.7149 26.4194 30.6003 26.6972C30.4857 26.9751 30.4271 27.2728 30.428 27.5733V29.0973C30.428 30.364 31.448 31.3827 32.7147 31.3827C33.015 31.3834 33.3125 31.3247 33.5901 31.2101C33.8677 31.0955 34.1199 30.9272 34.3322 30.7149C34.5446 30.5025 34.7129 30.2503 34.8275 29.9727C34.9421 29.6951 35.0007 29.3977 35 29.0973V27.5733C35.0009 27.2729 34.9424 26.9753 34.8279 26.6975C34.7133 26.4198 34.5451 26.1674 34.3327 25.9549C34.1203 25.7424 33.8681 25.574 33.5904 25.4593C33.3127 25.3446 33.0151 25.286 32.7147 25.2867Z" fill="black"/>
</svg>
