<svg width="39" height="38" viewBox="0 0 39 38" fill="none" xmlns="http://www.w3.org/2000/svg">
<path d="M29.5938 0H9.40625C4.48746 0 0.5 3.98746 0.5 8.90625V29.0938C0.5 34.0125 4.48746 38 9.40625 38H29.5938C34.5125 38 38.5 34.0125 38.5 29.0938V8.90625C38.5 3.98746 34.5125 0 29.5938 0Z" fill="#A6F6FF"/>
<path fill-rule="evenodd" clip-rule="evenodd" d="M12.8203 16.3281C13.7109 12.7656 15.9376 10.9844 19.5 10.9844C24.8438 10.9844 25.5117 14.9922 28.1836 15.6602C29.965 16.1056 31.5234 15.4376 32.8594 13.6562C31.9689 17.2186 29.742 19 26.1797 19C20.8359 19 20.168 14.9922 17.4961 14.3242C15.7147 13.8789 14.1562 14.5469 12.8203 16.3281ZM6.14062 24.3438C7.03125 20.7814 9.25781 19 12.8203 19C18.1641 19 18.832 23.0078 21.5039 23.6758C23.2853 24.1212 24.8438 23.4533 26.1797 21.6719C25.2892 25.2342 23.0624 27.0156 19.5 27.0156C14.1562 27.0156 13.4883 23.0078 10.8164 22.3398C9.03516 21.8944 7.47656 22.5624 6.14062 24.3438Z" fill="url(#paint0_linear_1214_13)"/>
<defs>
<linearGradient id="paint0_linear_1214_13" x1="13.3398" y1="10.9844" x2="24.7695" y2="27.5352" gradientUnits="userSpaceOnUse">
<stop/>
</linearGradient>
</defs>
</svg>
