<svg width="39" height="38" viewBox="0 0 39 38" fill="none" xmlns="http://www.w3.org/2000/svg">
<path d="M29.5938 0H9.40625C4.48746 0 0.5 3.98746 0.5 8.90625V29.0938C0.5 34.0125 4.48746 38 9.40625 38H29.5938C34.5125 38 38.5 34.0125 38.5 29.0938V8.90625C38.5 3.98746 34.5125 0 29.5938 0Z" fill="#A6F6FF"/>
<mask id="mask0_2030_10" style="mask-type:luminance" maskUnits="userSpaceOnUse" x="5" y="4" width="29" height="29">
<path d="M5.5 7C5.5 5.34315 6.84315 4 8.5 4H30.5C32.1569 4 33.5 5.34315 33.5 7V30C33.5 31.6569 32.1569 33 30.5 33H8.5C6.84315 33 5.5 31.6569 5.5 30V7Z" fill="white"/>
</mask>
<g mask="url(#mask0_2030_10)">
<path d="M32.8338 4H6.165C5.98852 4.00032 5.81938 4.07315 5.6947 4.20251C5.57003 4.33187 5.5 4.50718 5.5 4.68996V32.3112C5.49985 32.4019 5.51697 32.4917 5.5504 32.5755C5.58382 32.6593 5.63288 32.7354 5.69477 32.7995C5.75666 32.8636 5.83016 32.9144 5.91106 32.949C5.99195 32.9836 6.07864 33.0014 6.16617 33.0012H32.835C32.9225 33.0012 33.0091 32.9834 33.0899 32.9487C33.1708 32.914 33.2442 32.8632 33.3061 32.7991C33.3679 32.7351 33.417 32.659 33.4505 32.5753C33.4839 32.4916 33.5012 32.4019 33.5012 32.3112V4.68875C33.501 4.59814 33.4836 4.50846 33.45 4.42481C33.4164 4.34116 33.3672 4.26519 33.3052 4.20123C33.2433 4.13727 33.1697 4.08659 33.0889 4.05206C33.008 4.01753 32.9213 3.99984 32.8338 4ZM22.167 18.3085C22.167 18.9655 21.6344 19.4981 20.9774 19.4981H20.5004C19.58 19.4981 18.8338 20.2442 18.8338 21.1647V28.9042C18.8338 29.6407 18.2368 30.2377 17.5003 30.2377V30.2377C16.7639 30.2377 16.1668 29.6407 16.1668 28.9042V21.1647C16.1668 20.2442 15.4207 19.4981 14.5003 19.4981H14.0233C13.3663 19.4981 12.8337 18.9655 12.8337 18.3085V18.3085C12.8337 17.6515 13.3663 17.1189 14.0233 17.1189H20.9774C21.6344 17.1189 22.167 17.6515 22.167 18.3085V18.3085ZM22.9137 29.6239V29.6239C22.9137 28.4573 24.3755 27.691 25.5272 27.8769C25.7588 27.9143 25.9989 27.9359 26.2445 27.9359C28.061 27.9359 27.991 26.7058 27.991 26.5366C27.991 24.7519 22.8437 24.7519 22.8437 20.7958C22.8437 16.468 27.6983 16.996 29.5963 17.3679C30.0398 17.4548 30.3326 17.8571 30.3161 18.3087V18.3087C30.2878 19.0824 29.3721 19.5694 28.6236 19.3718C28.2967 19.2856 27.9399 19.2274 27.5722 19.2274C26.1512 19.2274 25.639 19.9283 25.639 20.675C25.639 22.6047 30.833 22.4126 30.833 26.2962C30.833 32.2774 22.9137 29.6251 22.9137 29.6251" fill="black"/>
</g>
</svg>
