<svg width="23" height="21" viewBox="0 0 23 21" fill="none" xmlns="http://www.w3.org/2000/svg">
<path d="M1 17.9999V8.95642C1 7.85185 1.89543 6.95642 3 6.95642H13.285C14.3896 6.95642 15.285 7.85185 15.285 8.95642V17.9999C15.285 19.1045 14.3896 19.9999 13.285 19.9999H3C1.89543 19.9999 1 19.1045 1 17.9999Z" stroke="url(#paint0_linear_991_9)" stroke-width="2"/>
<path d="M22.9956 2.09349C23.0473 1.54363 22.6434 1.05602 22.0935 1.00438L13.1329 0.162937C12.5831 0.111301 12.0954 0.515197 12.0438 1.06506C11.9922 1.61493 12.3961 2.10254 12.9459 2.15418L20.9109 2.90213L20.1629 10.8671C20.1113 11.4169 20.5152 11.9046 21.0651 11.9562C21.6149 12.0078 22.1025 11.6039 22.1542 11.0541L22.9956 2.09349ZM8.78048 14.2484L22.6379 2.77012L21.3621 1.22988L7.50468 12.7082L8.78048 14.2484Z" fill="url(#paint1_linear_991_9)"/>
<defs>
<linearGradient id="paint0_linear_991_9" x1="-1" y1="18.5" x2="32" y2="6" gradientUnits="userSpaceOnUse">
<stop stop-color="#A6F6FF"/>
<stop offset="1" stop-color="#A6F6FF" stop-opacity="0"/>
</linearGradient>
<linearGradient id="paint1_linear_991_9" x1="2" y1="8.99999" x2="33.5" y2="5.99998" gradientUnits="userSpaceOnUse">
<stop stop-color="#A6F6FF"/>
<stop offset="1" stop-color="#A6F6FF" stop-opacity="0"/>
</linearGradient>
</defs>
</svg>
