<svg width="21" height="21" viewBox="0 0 21 21" fill="none" xmlns="http://www.w3.org/2000/svg">
<path d="M10.5 0C16.2992 0 21 4.70085 21 10.5C21 16.2991 16.2992 21 10.5 21C8.64443 21.003 6.8215 20.5119 5.21851 19.5772L0.00421477 21L1.42381 15.7836C0.488362 14.1801 -0.00308529 12.3564 1.45742e-05 10.5C1.45742e-05 4.70085 4.70086 0 10.5 0ZM6.92161 5.565L6.71161 5.5734C6.57566 5.58168 6.44279 5.61739 6.32101 5.6784C6.20711 5.7429 6.10313 5.82353 6.01231 5.9178C5.88631 6.03645 5.81491 6.13935 5.73826 6.2391C5.34989 6.74404 5.14078 7.36397 5.14396 8.00099C5.14606 8.51549 5.28046 9.01634 5.49046 9.48464C5.91991 10.4317 6.62656 11.4345 7.55896 12.3637C7.78366 12.5874 8.00416 12.8121 8.24146 13.021C9.40002 14.0411 10.7806 14.7767 12.2735 15.1693L12.8699 15.2607C13.0641 15.2712 13.2584 15.2565 13.4537 15.247C13.7595 15.2313 14.0581 15.1485 14.3283 15.0045C14.4658 14.9337 14.6 14.8566 14.7305 14.7735C14.7305 14.7735 14.7756 14.7441 14.8617 14.679C15.0035 14.574 15.0906 14.4994 15.2082 14.3766C15.2954 14.2863 15.371 14.1802 15.4287 14.0595C15.5106 13.8883 15.5925 13.5618 15.6261 13.2898C15.6513 13.0819 15.644 12.9685 15.6408 12.8982C15.6366 12.7858 15.5432 12.6693 15.4413 12.6199L14.8302 12.3459C14.8302 12.3459 13.9167 11.9479 13.3581 11.6938C13.2997 11.6683 13.237 11.6537 13.1733 11.6508C13.1015 11.6434 13.0289 11.6515 12.9604 11.6745C12.892 11.6975 12.8292 11.7349 12.7764 11.7841C12.7712 11.782 12.7008 11.8419 11.9417 12.7617C11.8981 12.8202 11.8381 12.8645 11.7692 12.8888C11.7004 12.9131 11.6259 12.9164 11.5553 12.8982C11.4869 12.8799 11.4198 12.8567 11.3547 12.8289C11.2245 12.7743 11.1794 12.7533 11.0901 12.7155C10.4875 12.4525 9.92953 12.0972 9.43636 11.6623C9.30406 11.5468 9.18121 11.4208 9.05521 11.299C8.64213 10.9034 8.28212 10.4559 7.98421 9.96764L7.92226 9.86789C7.87776 9.80087 7.84179 9.72856 7.81516 9.65264C7.77526 9.49829 7.87921 9.37439 7.87921 9.37439C7.87921 9.37439 8.13436 9.09509 8.25301 8.94389C8.36851 8.79689 8.46616 8.6541 8.52916 8.55225C8.65306 8.35275 8.69191 8.14799 8.62681 7.98945C8.33281 7.27125 8.02831 6.5562 7.71541 5.8464C7.65346 5.7057 7.46971 5.6049 7.30276 5.58495C7.24606 5.57865 7.18936 5.57235 7.13266 5.56815C6.99165 5.56114 6.85035 5.56254 6.70951 5.57235L6.92056 5.56395L6.92161 5.565Z" fill="#A6F6FF"/>
</svg>
